<svg version="1.1" xmlns="http://www.w3.org/2000/svg" xmlns:xlink="http://www.w3.org/1999/xlink" width="237.5" height="285.5" viewBox="0,0,237.5,285.5"><defs><linearGradient x1="240.00007" y1="36.75001" x2="240.00007" y2="322.25001" gradientUnits="userSpaceOnUse" id="color-1"><stop offset="0" stop-color="#00b5ff"/><stop offset="1" stop-color="#ff0000"/></linearGradient><linearGradient x1="327.4217" y1="236.64711" x2="327.4217" y2="261.96004" gradientUnits="userSpaceOnUse" id="color-2"><stop offset="0" stop-color="#e0cd00"/><stop offset="1" stop-color="#ffe000"/></linearGradient><linearGradient x1="327.42168" y1="271.47605" x2="327.42168" y2="296.789" gradientUnits="userSpaceOnUse" id="color-3"><stop offset="0" stop-color="#e0cd00"/><stop offset="1" stop-color="#ffe000"/></linearGradient></defs><g transform="translate(-121.25007,-36.75001)"><g data-paper-data="{&quot;isPaintingLayer&quot;:true}" fill-rule="nonzero" stroke-linejoin="miter" stroke-miterlimit="10" stroke-dasharray="" stroke-dashoffset="0" style="mix-blend-mode: normal"><path d="M121.25008,290.82813c0,-62.17069 0,-195.58744 0,-227c0,-12.75929 14.27109,-27.07812 28.59721,-27.07812c28.14464,0 129.79631,0 180,0c17.52511,0 28.90279,10.1997 28.90279,26.57812c0,58.06501 0,193.78754 0,228c0,15.28687 -12.02073,30.92188 -30.40279,30.92188c-51.28556,0 -152.08758,0 -179.5,0c-13.50227,0 -27.59721,-12.21585 -27.59721,-31.42188z" fill="#4e4e4e" stroke="url(#color-1)" stroke-width="0" stroke-linecap="butt"/><text transform="translate(177.70261,134.18325) scale(0.727,0.727)" font-size="40" xml:space="preserve" fill="#ffffff" fill-rule="nonzero" stroke="#ffffff" stroke-width="3" stroke-linecap="butt" stroke-linejoin="miter" stroke-miterlimit="10" stroke-dasharray="" stroke-dashoffset="0" font-family="Sans Serif" font-weight="normal" text-anchor="start" style="mix-blend-mode: normal"><tspan x="0" dy="0">RESULTS</tspan></text><path d="M295.46407,139.08737h-115.56818" fill="none" stroke="#ffffff" stroke-width="3" stroke-linecap="round"/><text transform="translate(160.23749,179.69195) scale(0.66084,0.66084)" font-size="40" xml:space="preserve" fill="#ffffff" fill-rule="nonzero" stroke="#ffffff" stroke-width="1" stroke-linecap="butt" stroke-linejoin="miter" stroke-miterlimit="10" stroke-dasharray="" stroke-dashoffset="0" font-family="Sans Serif" font-weight="normal" text-anchor="start" style="mix-blend-mode: normal"><tspan x="0" dy="0">Score:</tspan></text><path d="M124.11272,290.82813c0,-62.17069 -0.91244,-64.58494 -0.91244,-64.58494l232.72891,-0.5c0,0 0.91244,31.37248 0.91244,65.58494c0,15.28687 -10.11229,28.53634 -28.49435,28.53634c-51.28556,0 -152.08758,0 -179.5,0c-13.50227,0 -24.73456,-9.83031 -24.73456,-29.03634z" fill="#414141" stroke="#797979" stroke-width="0" stroke-linecap="butt"/><text transform="translate(165.31077,257.69327) scale(0.48614,0.48614)" font-size="40" xml:space="preserve" fill="#ffffff" fill-rule="nonzero" stroke="#ffffff" stroke-width="1" stroke-linecap="butt" stroke-linejoin="miter" stroke-miterlimit="10" stroke-dasharray="" stroke-dashoffset="0" font-family="Sans Serif" font-weight="normal" text-anchor="start" style="mix-blend-mode: normal"><tspan x="0" dy="0">000 points for 2 </tspan></text><path d="M317.21227,246.18746c1.87414,0.05937 7.17057,0.22713 7.17057,0.22713c0,0 1.65742,-5.39102 2.20937,-7.18631c0.33079,-1.07594 1.29038,-1.03096 1.64102,0.06307c0.57358,1.78966 2.26778,7.07588 2.26778,7.07588c0,0 5.13932,-0.12856 7.00127,-0.19222c1.13933,-0.03895 1.69674,1.05083 0.77658,1.73777c-1.52051,1.13513 -5.93098,4.27897 -5.93098,4.27897c0,0 1.58277,4.78948 2.17454,6.58013c0.40816,1.23509 -0.52015,1.99081 -1.5429,1.24107c-1.50391,-1.10245 -5.57302,-4.08536 -5.57302,-4.08536c0,0 -3.89302,2.9942 -5.33985,4.10699c-0.99066,0.76194 -2.01622,0.30139 -1.67865,-0.82385c0.5368,-1.7893 2.08558,-6.95182 2.08558,-6.95182c0,0 -4.32773,-3.23713 -5.84913,-4.37513c-0.97335,-0.72807 -0.62076,-1.73463 0.58782,-1.69634z" fill="url(#color-2)" stroke="#ffffff" stroke-width="1.5" stroke-linecap="butt"/><text transform="translate(165.55489,292.52223) scale(0.48614,0.48614)" font-size="40" xml:space="preserve" fill="#ffffff" fill-rule="nonzero" stroke="#ffffff" stroke-width="1" stroke-linecap="butt" stroke-linejoin="miter" stroke-miterlimit="10" stroke-dasharray="" stroke-dashoffset="0" font-family="Sans Serif" font-weight="normal" text-anchor="start" style="mix-blend-mode: normal"><tspan x="0" dy="0">000 points for 3 </tspan></text><path d="M317.21227,281.0164c1.87414,0.05937 7.17057,0.22713 7.17057,0.22713c0,0 1.65742,-5.39102 2.20937,-7.18631c0.33079,-1.07594 1.29038,-1.03096 1.64102,0.06307c0.57358,1.78966 2.26778,7.07588 2.26778,7.07588c0,0 5.13932,-0.12856 7.00127,-0.19222c1.13933,-0.03895 1.69674,1.05083 0.77658,1.73777c-1.52051,1.13513 -5.93098,4.27897 -5.93098,4.27897c0,0 1.58277,4.78948 2.17454,6.58013c0.40816,1.23509 -0.52015,1.99081 -1.5429,1.24107c-1.50391,-1.10245 -5.57302,-4.08536 -5.57302,-4.08536c0,0 -3.89302,2.9942 -5.33985,4.10699c-0.99066,0.76194 -2.01622,0.30139 -1.67865,-0.82385c0.5368,-1.7893 2.08558,-6.95182 2.08558,-6.95182c0,0 -4.32773,-3.23713 -5.84913,-4.37513c-0.97335,-0.72807 -0.62076,-1.73463 0.58782,-1.69634z" fill="url(#color-3)" stroke="#ffffff" stroke-width="1.5" stroke-linecap="butt"/></g></g></svg>