<svg version="1.1" xmlns="http://www.w3.org/2000/svg" xmlns:xlink="http://www.w3.org/1999/xlink" width="239.93303" height="161.61661" viewBox="0,0,239.93303,161.61661"><g transform="translate(-123.59287,-85.21898)"><g data-paper-data="{&quot;isPaintingLayer&quot;:true}" fill-rule="nonzero" stroke-linejoin="miter" stroke-miterlimit="10" stroke-dasharray="" stroke-dashoffset="0" style="mix-blend-mode: normal"><g><path d="M205.34137,191.54981v-46.64541c0,0 3.7082,0 5.23393,0c1.18554,0 3.16012,1.64908 3.16012,3.278c0,8.30534 0,33.72377 0,39.41503c0,2.16127 -1.5388,3.95239 -2.56759,3.95239c-1.54975,0 -5.82646,0 -5.82646,0z" fill="#ffffff" stroke="none" stroke-width="0" stroke-linecap="butt"/><path d="M200.81228,191.65603c0,0 -4.74103,0.77172 -9.11758,-2.37273c-2.5283,-1.81653 -3.52662,-6.00118 -3.52662,-8.36653c0,-5.25711 0,-17.48259 0,-26.09858c0,-2.04772 1.76198,-6.4815 4.43617,-7.97946c4.34295,-2.43271 8.20804,-1.96091 8.20804,-1.96091v46.77822z" fill="#ffffff" stroke="none" stroke-width="0" stroke-linecap="butt"/><path d="M268.83218,191.54981c-1.02879,0 -2.56759,-1.79112 -2.56759,-3.95239c0,-5.69126 0,-31.10968 0,-39.41503c0,-1.62892 1.97458,-3.278 3.16012,-3.278c1.52574,0 5.23393,0 5.23393,0v46.64541c0,0 -4.27671,0 -5.82646,0z" data-paper-data="{&quot;index&quot;:null}" fill="#ffffff" stroke="none" stroke-width="0" stroke-linecap="butt"/><path d="M279.18771,191.65603v-46.77822c0,0 3.86509,-0.4718 8.20804,1.96091c2.67418,1.49795 4.43617,5.93173 4.43617,7.97946c0,8.61599 0,20.84147 0,26.09858c0,2.36535 -0.99831,6.55 -3.52662,8.36653c-4.37654,3.14445 -9.11758,2.37273 -9.11758,2.37273z" data-paper-data="{&quot;index&quot;:null}" fill="#ffffff" stroke="none" stroke-width="0" stroke-linecap="butt"/><path d="M196.99055,152.46542c0,0 -11.38704,-50.08394 42.23587,-50.2049c53.47587,-0.12063 44.62658,50.2049 44.62658,50.2049" fill="none" stroke="#ffffff" stroke-width="3.5" stroke-linecap="round"/></g><text transform="translate(150.8399,219.90432) scale(0.40869,0.40869)" font-size="40" xml:space="preserve" fill="#ffffff" fill-rule="nonzero" stroke="#ffffff" stroke-width="1" stroke-linecap="butt" stroke-linejoin="miter" stroke-miterlimit="10" stroke-dasharray="" stroke-dashoffset="0" font-family="Sans Serif" font-weight="normal" text-anchor="start" style="mix-blend-mode: normal"><tspan x="0" dy="0">Best with headphones </tspan></text><path d="M123.59287,246.83559v-161.61661h239.93303v161.61661z" fill="none" stroke="none" stroke-width="0" stroke-linecap="butt"/></g></g></svg>