<svg version="1.1" xmlns="http://www.w3.org/2000/svg" xmlns:xlink="http://www.w3.org/1999/xlink" width="242" height="298.06871" viewBox="0,0,242,298.06871"><defs><linearGradient x1="168.59298" y1="33.85987" x2="168.59298" y2="98.5009" gradientUnits="userSpaceOnUse" id="color-1"><stop offset="0" stop-color="#e0cd00"/><stop offset="1" stop-color="#ffe000"/></linearGradient><linearGradient x1="235.3387" y1="21.93617" x2="235.3387" y2="99.27882" gradientUnits="userSpaceOnUse" id="color-2"><stop offset="0" stop-color="#e0cd00"/><stop offset="1" stop-color="#ffe000"/></linearGradient><linearGradient x1="302.91481" y1="33.85987" x2="302.91481" y2="98.5009" gradientUnits="userSpaceOnUse" id="color-3"><stop offset="0" stop-color="#e0cd00"/><stop offset="1" stop-color="#ffe000"/></linearGradient></defs><g transform="translate(-119,-26.43129)"><g data-paper-data="{&quot;isPaintingLayer&quot;:true}" fill-rule="nonzero" stroke-linejoin="miter" stroke-miterlimit="10" stroke-dasharray="" stroke-dashoffset="0" style="mix-blend-mode: normal"><path d="M121.25,290.82812c0,-62.17069 0,-195.58744 0,-227c0,-12.75929 14.27109,-27.07812 28.59721,-27.07812c28.14464,0 129.79631,0 180,0c17.52511,0 28.90279,10.1997 28.90279,26.57812c0,58.06501 0,193.78754 0,228c0,15.28687 -12.02073,30.92188 -30.40279,30.92188c-51.28556,0 -152.08758,0 -179.5,0c-13.50227,0 -27.59721,-12.21585 -27.59721,-31.42188z" fill="#4e4e4e" stroke="#797979" stroke-width="4.5" stroke-linecap="butt"/><path d="M146.15786,61.17736c4.78594,0.1516 18.31129,0.58002 18.31129,0.58002c0,0 4.23252,-13.76691 5.642,-18.3515c0.84473,-2.7476 3.29521,-2.63274 4.19062,0.16107c1.46474,4.57021 5.79118,18.0695 5.79118,18.0695c0,0 13.12414,-0.3283 17.87896,-0.49087c2.90949,-0.09947 4.33292,2.68349 1.98313,4.4377c-3.88289,2.89874 -15.14578,10.9271 -15.14578,10.9271c0,0 4.04189,12.23076 5.55307,16.8035c1.0423,3.15402 -1.3283,5.08387 -3.94007,3.16928c-3.8405,-2.81531 -14.23168,-10.43267 -14.23168,-10.43267c0,0 -9.9415,7.64622 -13.63623,10.48791c-2.52982,1.94574 -5.14878,0.76965 -4.28672,-2.10384c1.37082,-4.56928 5.3259,-17.75268 5.3259,-17.75268c0,0 -11.05161,-8.26658 -14.93677,-11.17266c-2.48563,-1.85925 -1.58521,-4.42967 1.50111,-4.3319z" fill="#1e1e1e" stroke="#1e1e1e" stroke-width="2" stroke-linecap="butt"/><path d="M206.76598,53.83879c5.96262,0.18888 22.81334,0.72262 22.81334,0.72262c0,0 5.27313,-17.15167 7.02916,-22.86343c1.05241,-3.42313 4.10538,-3.28003 5.22093,0.20067c1.82486,5.69385 7.21501,22.5121 7.21501,22.5121c0,0 16.35086,-0.40902 22.27471,-0.61156c3.62482,-0.12392 5.39823,3.34326 2.47071,5.52877c-4.83754,3.61143 -18.86956,13.61366 -18.86956,13.61366c0,0 5.03564,15.23784 6.91836,20.93484c1.29856,3.92947 -1.65488,6.3338 -4.90878,3.94849c-4.78474,-3.50749 -17.73071,-12.99767 -17.73071,-12.99767c0,0 -12.38573,9.52613 -16.98886,13.06649c-3.1518,2.42413 -6.41467,0.95888 -5.34067,-2.62109c1.70785,-5.69269 6.63534,-22.11739 6.63534,-22.11739c0,0 -13.76878,-10.29902 -18.60915,-13.91959c-3.09675,-2.31637 -1.97496,-5.51876 1.87017,-5.39695z" fill="#1e1e1e" stroke="#1e1e1e" stroke-width="2" stroke-linecap="butt"/><path d="M142.52149,58.22282c4.78594,0.1516 18.31129,0.58002 18.31129,0.58002c0,0 4.23252,-13.76691 5.642,-18.3515c0.84473,-2.7476 3.29521,-2.63274 4.19062,0.16107c1.46474,4.57021 5.79118,18.0695 5.79118,18.0695c0,0 13.12414,-0.3283 17.87896,-0.49087c2.90949,-0.09947 4.33292,2.68349 1.98313,4.4377c-3.88289,2.89874 -15.14578,10.9271 -15.14578,10.9271c0,0 4.04189,12.23076 5.55307,16.8035c1.0423,3.15402 -1.3283,5.08387 -3.94007,3.16928c-3.8405,-2.81531 -14.23168,-10.43267 -14.23168,-10.43267c0,0 -9.9415,7.64622 -13.63623,10.48791c-2.52982,1.94574 -5.14878,0.76965 -4.28672,-2.10384c1.37082,-4.56928 5.3259,-17.75268 5.3259,-17.75268c0,0 -11.05161,-8.26658 -14.93677,-11.17266c-2.48563,-1.85925 -1.58521,-4.42967 1.50111,-4.3319z" fill="url(#color-1)" stroke="#ffffff" stroke-width="2" stroke-linecap="butt"/><path d="M204.14431,51.08631c5.72635,0.18139 21.90937,0.69399 21.90937,0.69399c0,0 5.06419,-16.47203 6.75062,-21.95747c1.01072,-3.28749 3.9427,-3.15007 5.01406,0.19271c1.75256,5.46823 6.92911,21.62006 6.92911,21.62006c0,0 15.70297,-0.39281 21.39208,-0.58732c3.48119,-0.11901 5.18431,3.21078 2.3728,5.30969c-4.64586,3.46833 -18.12185,13.07422 -18.12185,13.07422c0,0 4.8361,14.63404 6.64422,20.1053c1.2471,3.77377 -1.5893,6.08282 -4.71427,3.79202c-4.59514,-3.3685 -17.02813,-12.48264 -17.02813,-12.48264c0,0 -11.89495,9.14867 -16.31568,12.54873c-3.02692,2.32807 -6.16049,0.92088 -5.12904,-2.51723c1.64018,-5.46712 6.37241,-21.24099 6.37241,-21.24099c0,0 -13.22319,-9.89092 -17.87176,-13.36803c-2.97404,-2.22458 -1.8967,-5.30007 1.79607,-5.18309z" fill="url(#color-2)" stroke="#ffffff" stroke-width="2" stroke-linecap="butt"/><path d="M281.04422,61.74554c4.78594,0.1516 18.31129,0.58002 18.31129,0.58002c0,0 4.23252,-13.76691 5.642,-18.3515c0.84473,-2.7476 3.29521,-2.63274 4.19062,0.16107c1.46474,4.57021 5.79118,18.0695 5.79118,18.0695c0,0 13.12414,-0.3283 17.87896,-0.49087c2.90949,-0.09947 4.33292,2.68349 1.98313,4.4377c-3.88289,2.89874 -15.14578,10.9271 -15.14578,10.9271c0,0 4.04189,12.23076 5.55307,16.8035c1.0423,3.15402 -1.3283,5.08387 -3.94007,3.16928c-3.8405,-2.81531 -14.23168,-10.43267 -14.23168,-10.43267c0,0 -9.9415,7.64622 -13.63623,10.48791c-2.52982,1.94574 -5.14878,0.76965 -4.28672,-2.10384c1.37082,-4.56928 5.3259,-17.75268 5.3259,-17.75268c0,0 -11.05161,-8.26658 -14.93677,-11.17266c-2.48563,-1.85925 -1.58521,-4.42967 1.50111,-4.3319z" fill="#1e1e1e" stroke="#1e1e1e" stroke-width="2" stroke-linecap="butt"/><path d="M276.84334,58.22282c4.78594,0.1516 18.31129,0.58002 18.31129,0.58002c0,0 4.23252,-13.76691 5.642,-18.3515c0.84473,-2.7476 3.29521,-2.63274 4.19062,0.16107c1.46474,4.57021 5.79118,18.0695 5.79118,18.0695c0,0 13.12414,-0.3283 17.87896,-0.49087c2.90949,-0.09947 4.33292,2.68349 1.98313,4.4377c-3.88289,2.89874 -15.14578,10.9271 -15.14578,10.9271c0,0 4.04189,12.23076 5.55307,16.8035c1.0423,3.15402 -1.3283,5.08387 -3.94007,3.16928c-3.8405,-2.81531 -14.23168,-10.43267 -14.23168,-10.43267c0,0 -9.9415,7.64622 -13.63623,10.48791c-2.52982,1.94574 -5.14878,0.76965 -4.28672,-2.10384c1.37082,-4.56928 5.3259,-17.75268 5.3259,-17.75268c0,0 -11.05161,-8.26658 -14.93677,-11.17266c-2.48563,-1.85925 -1.58521,-4.42967 1.50111,-4.3319z" fill="url(#color-3)" stroke="#ffffff" stroke-width="2" stroke-linecap="butt"/><text transform="translate(177.70254,134.18323) scale(0.727,0.727)" font-size="40" xml:space="preserve" fill="#ffffff" fill-rule="nonzero" stroke="#ffffff" stroke-width="3" stroke-linecap="butt" stroke-linejoin="miter" stroke-miterlimit="10" stroke-dasharray="" stroke-dashoffset="0" font-family="Sans Serif" font-weight="normal" text-anchor="start" style="mix-blend-mode: normal"><tspan x="0" dy="0">RESULTS</tspan></text><path d="M295.46401,139.08735h-115.56818" fill="none" stroke="#ffffff" stroke-width="3" stroke-linecap="round"/><text transform="translate(143.8389,177.48869) scale(0.50945,0.50945)" font-size="40" xml:space="preserve" fill="#ffffff" fill-rule="nonzero" stroke="#ffffff" stroke-width="1" stroke-linecap="butt" stroke-linejoin="miter" stroke-miterlimit="10" stroke-dasharray="" stroke-dashoffset="0" font-family="Sans Serif" font-weight="normal" text-anchor="start" style="mix-blend-mode: normal"><tspan x="0" dy="0">Score:</tspan></text></g></g></svg>