<svg version="1.1" xmlns="http://www.w3.org/2000/svg" xmlns:xlink="http://www.w3.org/1999/xlink" width="36.8921" height="71.16764" viewBox="0,0,36.8921,71.16764"><defs><linearGradient x1="233.42097" y1="126.72512" x2="233.42097" y2="178.67077" gradientUnits="userSpaceOnUse" id="color-1"><stop offset="0" stop-color="#ff0000" stop-opacity="0"/><stop offset="1" stop-color="#ff0000"/></linearGradient><linearGradient x1="237.69951" y1="126.86872" x2="237.69951" y2="178.81437" gradientUnits="userSpaceOnUse" id="color-2"><stop offset="0" stop-color="#ffe82e" stop-opacity="0"/><stop offset="1" stop-color="#ffe82e"/></linearGradient><linearGradient x1="242.02831" y1="126.62823" x2="242.02831" y2="178.57388" gradientUnits="userSpaceOnUse" id="color-3"><stop offset="0" stop-color="#00ff6b" stop-opacity="0"/><stop offset="1" stop-color="#00ff6b"/></linearGradient><linearGradient x1="246.1596" y1="126.57796" x2="246.1596" y2="178.52361" gradientUnits="userSpaceOnUse" id="color-4"><stop offset="0" stop-color="#e200ff" stop-opacity="0"/><stop offset="1" stop-color="#e200ff"/></linearGradient><linearGradient x1="240.03093" y1="160.33577" x2="240.03093" y2="199.28243" gradientUnits="userSpaceOnUse" id="color-5"><stop offset="0" stop-color="#fff582"/><stop offset="1" stop-color="#ffe000"/></linearGradient></defs><g transform="translate(-221.55397,-126.57796)"><g data-paper-data="{&quot;isPaintingLayer&quot;:true}" fill-rule="nonzero" stroke-linecap="butt" stroke-linejoin="miter" stroke-miterlimit="10" stroke-dasharray="" stroke-dashoffset="0" style="mix-blend-mode: normal"><path d="M231.13633,178.67077v-51.94565h4.56929v51.94565z" fill="url(#color-1)" stroke="none" stroke-width="0"/><path d="M235.41486,178.81437v-51.94565h4.56929v51.94565z" fill="url(#color-2)" stroke="none" stroke-width="0"/><path d="M239.74367,178.57388v-51.94565h4.56929v51.94565z" fill="url(#color-3)" stroke="none" stroke-width="0"/><path d="M243.87495,178.52361v-51.94565h4.56929v51.94565z" fill="url(#color-4)" stroke="none" stroke-width="0"/><path d="M224.32269,175.01461c2.88356,0.09134 11.03268,0.34946 11.03268,0.34946c0,0 2.55012,-8.29466 3.39935,-11.05691c0.50895,-1.65545 1.98539,-1.58624 2.52488,0.09705c0.88252,2.75358 3.48923,10.887 3.48923,10.887c0,0 7.90739,-0.1978 10.7722,-0.29575c1.75299,-0.05993 2.61061,1.61682 1.19485,2.67374c-2.33947,1.74651 -9.12544,6.58365 -9.12544,6.58365c0,0 2.43527,7.36912 3.34576,10.12423c0.62799,1.90032 -0.80031,3.06307 -2.37392,1.90951c-2.31393,-1.69625 -8.57469,-6.28576 -8.57469,-6.28576c0,0 -5.98983,4.6069 -8.21592,6.31904c-1.52423,1.17232 -3.10218,0.46372 -2.58278,-1.26758c0.82593,-2.75303 3.20889,-10.69612 3.20889,-10.69612c0,0 -6.65867,-4.98067 -8.99951,-6.73161c-1.49761,-1.12021 -0.9551,-2.6689 0.90443,-2.61z" fill="url(#color-5)" stroke="#ffffff" stroke-width="2"/></g></g></svg>