<svg version="1.1" xmlns="http://www.w3.org/2000/svg" xmlns:xlink="http://www.w3.org/1999/xlink" width="378.10812" height="61.67353" viewBox="0,0,378.10812,61.67353"><g transform="translate(-51.12943,-167.63062)"><g data-paper-data="{&quot;isPaintingLayer&quot;:true}" fill-rule="nonzero" stroke-linecap="butt" stroke-linejoin="miter" stroke-miterlimit="10" stroke-dasharray="" stroke-dashoffset="0" style="mix-blend-mode: normal"><text transform="translate(51.31264,224.79052) scale(0.36642,0.36642)" font-size="40" xml:space="preserve" fill="#ff4c4c" fill-rule="nonzero" stroke="#ff4c4c" stroke-width="1" stroke-linecap="butt" stroke-linejoin="miter" stroke-miterlimit="10" stroke-dasharray="" stroke-dashoffset="0" font-family="Sans Serif" font-weight="normal" text-anchor="start" style="mix-blend-mode: normal"><tspan x="0" dy="0">Red notes:</tspan></text><g fill="#ff4c4c" stroke="none" stroke-width="0"><path d="M76.68224,167.63062c3.97983,0 13.42,0 21,0c5.5904,0 9.32101,4.76869 9.32101,10.91161c0,4.27822 0,9.08989 0,9.08989h-39c0,0 0,-5.31867 0,-9.08989c0,-5.82615 5.25503,-10.91161 8.67899,-10.91161z" data-paper-data="{&quot;index&quot;:null}"/><path d="M68.00325,194.38714c0,-3.77122 0,-7.58839 0,-7.58839h39c0,0 0,3.31017 0,7.58839c0,6.14292 -3.73061,10.91161 -9.32101,10.91161c-7.58,0 -17.02017,0 -21,0c-3.42396,0 -8.67899,-5.08546 -8.67899,-10.91161z" data-paper-data="{&quot;index&quot;:null}"/></g><text transform="translate(150.17626,224.79052) scale(0.36642,0.36642)" font-size="40" xml:space="preserve" fill="#00daff" fill-rule="nonzero" stroke="#00daff" stroke-width="1" stroke-linecap="butt" stroke-linejoin="miter" stroke-miterlimit="10" stroke-dasharray="" stroke-dashoffset="0" font-family="Sans Serif" font-weight="normal" text-anchor="start" style="mix-blend-mode: normal"><tspan x="0" dy="0">Blue notes:</tspan></text><g fill="#00daff" stroke="none" stroke-width="0"><path d="M176.90951,167.63062c3.97983,0 13.42,0 21,0c5.5904,0 9.32101,4.76869 9.32101,10.91161c0,4.27822 0,9.08989 0,9.08989h-39c0,0 0,-5.31867 0,-9.08989c0,-5.82615 5.25503,-10.91161 8.67899,-10.91161z" data-paper-data="{&quot;index&quot;:null}"/><path d="M168.23052,194.38715c0,-3.77122 0,-7.58839 0,-7.58839h39c0,0 0,3.31017 0,7.58839c0,6.14292 -3.73061,10.91161 -9.32101,10.91161c-7.58,0 -17.02017,0 -21,0c-3.42396,0 -8.67899,-5.08546 -8.67899,-10.91161z" data-paper-data="{&quot;index&quot;:null}"/></g><text transform="translate(236.08536,224.79052) scale(0.36642,0.36642)" font-size="40" xml:space="preserve" fill="#25ec00" fill-rule="nonzero" stroke="#25ec00" stroke-width="1" stroke-linecap="butt" stroke-linejoin="miter" stroke-miterlimit="10" stroke-dasharray="" stroke-dashoffset="0" font-family="Sans Serif" font-weight="normal" text-anchor="start" style="mix-blend-mode: normal"><tspan x="0" dy="0">Green notes:</tspan></text><g fill="#25ec00" stroke="none" stroke-width="0"><path d="M269.63679,167.63062c3.97983,0 13.42,0 21,0c5.5904,0 9.32101,4.76869 9.32101,10.91161c0,4.27822 0,9.08989 0,9.08989h-39c0,0 0,-5.31867 0,-9.08989c0,-5.82615 5.25503,-10.91161 8.67899,-10.91161z" data-paper-data="{&quot;index&quot;:null}"/><path d="M260.9578,194.38715c0,-3.77122 0,-7.58839 0,-7.58839h39c0,0 0,3.31017 0,7.58839c0,6.14292 -3.73061,10.91161 -9.32101,10.91161c-7.58,0 -17.02017,0 -21,0c-3.42396,0 -8.67899,-5.08546 -8.67899,-10.91161z" data-paper-data="{&quot;index&quot;:null}"/></g><text transform="translate(336.99444,224.79052) scale(0.36642,0.36642)" font-size="40" xml:space="preserve" fill="#fffa00" fill-rule="nonzero" stroke="#fffa00" stroke-width="1" stroke-linecap="butt" stroke-linejoin="miter" stroke-miterlimit="10" stroke-dasharray="" stroke-dashoffset="0" font-family="Sans Serif" font-weight="normal" text-anchor="start" style="mix-blend-mode: normal"><tspan x="0" dy="0">Yellow notes:</tspan></text><g fill="#fffa00" stroke="none" stroke-width="0"><path d="M370.54587,167.63062c3.97983,0 13.42,0 21,0c5.5904,0 9.32101,4.76869 9.32101,10.91161c0,4.27822 0,9.08989 0,9.08989h-39c0,0 0,-5.31867 0,-9.08989c0,-5.82615 5.25503,-10.91161 8.67899,-10.91161z" data-paper-data="{&quot;index&quot;:null}"/><path d="M361.86688,194.38715c0,-3.77122 0,-7.58839 0,-7.58839h39c0,0 0,3.31017 0,7.58839c0,6.14292 -3.73061,10.91161 -9.32101,10.91161c-7.58,0 -17.02017,0 -21,0c-3.42396,0 -8.67899,-5.08546 -8.67899,-10.91161z" data-paper-data="{&quot;index&quot;:null}"/></g></g></g></svg>