<svg version="1.1" xmlns="http://www.w3.org/2000/svg" xmlns:xlink="http://www.w3.org/1999/xlink" width="56.97636" height="47.55292" viewBox="0,0,56.97636,47.55292"><defs><radialGradient cx="239.83335" cy="188.66667" r="25.55555" gradientUnits="userSpaceOnUse" id="color-1"><stop offset="0" stop-color="#201a1a"/><stop offset="1" stop-color="#201a1a" stop-opacity="0"/></radialGradient><radialGradient cx="239.35639" cy="183.03081" r="25.67778" gradientUnits="userSpaceOnUse" id="color-2"><stop offset="0" stop-color="#ffcaca"/><stop offset="1" stop-color="#fc1212"/></radialGradient><radialGradient cx="240.80974" cy="181.52174" r="29.14226" gradientUnits="userSpaceOnUse" id="color-3"><stop offset="0" stop-color="#ff5353"/><stop offset="1" stop-color="#ff5353" stop-opacity="0"/></radialGradient><radialGradient cx="240.61122" cy="183.33338" r="20.78889" gradientUnits="userSpaceOnUse" id="color-4"><stop offset="0" stop-color="#ffa7a7"/><stop offset="1" stop-color="#fc7d7d"/></radialGradient><radialGradient cx="239.57786" cy="181.48633" r="17.99149" gradientUnits="userSpaceOnUse" id="color-5"><stop offset="0" stop-color="#ffcfcf"/><stop offset="1" stop-color="#ffcfcf" stop-opacity="0"/></radialGradient></defs><g transform="translate(-211.66749,-163.11111)"><g data-paper-data="{&quot;isPaintingLayer&quot;:true}" fill-rule="nonzero" stroke="none" stroke-width="0" stroke-linecap="butt" stroke-linejoin="miter" stroke-miterlimit="10" stroke-dasharray="" stroke-dashoffset="0" style="mix-blend-mode: normal"><path d="M217.57342,176.10436c4.38719,-7.75724 12.71209,-12.99325 22.25993,-12.99325c9.29085,0 17.42371,4.95794 21.89717,12.37241c2.32228,3.84902 -46.25521,4.33062 -44.1571,0.62084z" fill="url(#color-1)"/><path d="M231.11854,183.09478c-6.32453,-0.09535 -10.64649,-0.84625 -10.64649,-0.84625l-6.26519,-3.88578c0,0 2.42862,-1.52295 3.40207,-2.31445c1.02531,-0.83366 2.71341,-3.67871 2.71341,-3.67871c0,0 3.96837,2.94554 5.00051,2.70964c0.21364,-0.04883 2.48018,0.01292 4.74658,-1.27725c2.38114,-1.35547 2.20658,-3.73144 2.20658,-3.73144c0,0 3.52561,1.86144 6.29117,2.64121c1.43668,0.40509 5.74356,-0.86605 5.74356,-0.86605c0,0 0.96107,1.65085 1.39216,1.69187c2.19037,0.20845 11.46406,-3.98453 11.46406,-3.98453c0,0 0.86659,1.27301 1.17303,2.45963c0.28678,1.1105 1.27718,3.22467 1.27718,3.22467l5.39407,1.76642l-5.26083,5.24476c0,0 -5.2208,0.66172 -8.17956,0.66172c0,0 -13.18726,0.29407 -20.45231,0.18454z" data-paper-data="{&quot;index&quot;:null}" fill="url(#color-2)"/><path d="M220.39408,177.61364c0.97668,0.99144 0.03312,-1.57662 1.19777,-0.84968c2.96037,1.84779 7.01167,0.80517 13.99238,0.80517c8.90886,0 13.27714,-0.3864 20.05235,-0.97882c5.46494,-0.47785 13.00727,0.54868 13.00727,7.73465c0,16.09483 -11.73927,26.33907 -27.8341,26.33907c-16.09483,0 -29.14226,-13.04744 -29.14226,-29.14227c0,0 1.51766,-1.96301 3.4322,-2.94029c2.24349,-1.1452 4.95731,-1.31 5.2944,-0.96782z" fill="url(#color-3)"/><path d="M224.10011,182.70004l-5.77778,-5.95555c0,0 6.39682,0.29305 10.28836,-0.73655c3.89154,-1.02961 6.3465,-2.71695 6.3465,-2.71695c0,0 8.04213,1.40268 10.54282,1.36868c4.43897,-0.06036 11.22452,-0.82207 11.22452,-0.82207c0,0 1.17027,1.99885 1.96008,2.76105c0.70304,0.67847 2.54883,1.59028 2.54883,1.59028l-5.33333,4.51111c0,0 -3.49909,0.40553 -8.61947,0.48273c-5.88183,0.08867 -13.6545,-0.14939 -16.55831,-0.14939c-2.39543,0 -6.62222,-0.33334 -6.62222,-0.33334z" fill="url(#color-4)"/><path d="M221.58641,181.48633c0,-4.91068 1.40897,-2.80031 4.43513,-2.35333c1.96311,0.28996 2.93375,-1.73713 6.11438,-2.96978c1.83726,-0.71203 8.51224,2.28044 10.35236,2.28044c4.96553,0 6.31915,-2.11845 9.73983,-2.60091c3.42437,-0.48297 5.34125,0.6727 5.34125,5.64359c0,9.93641 -8.05507,17.99148 -17.99149,17.99148c-9.93641,0 -17.99148,-8.05507 -17.99148,-17.99148z" fill="url(#color-5)"/></g></g></svg>