<svg version="1.1" xmlns="http://www.w3.org/2000/svg" xmlns:xlink="http://www.w3.org/1999/xlink" width="38.50001" height="35.47633" viewBox="0,0,38.50001,35.47633"><defs><linearGradient x1="241.18787" y1="163.26183" x2="241.18787" y2="223.51923" gradientUnits="userSpaceOnUse" id="color-1"><stop offset="0" stop-color="#d6d6d6"/><stop offset="1" stop-color="#a3a3a3"/></linearGradient></defs><g transform="translate(-220.75,-162.26183)"><g data-paper-data="{&quot;isPaintingLayer&quot;:true}" fill-rule="nonzero" stroke-width="2" stroke-linecap="butt" stroke-linejoin="miter" stroke-miterlimit="10" stroke-dasharray="" stroke-dashoffset="0" style="mix-blend-mode: normal"><path d="M221.75,189.82692c0,-6.72824 0,-17.09676 0,-20.69053c0,-2.66992 3.44007,-5.87456 6.86805,-5.87456c7.9087,0 8.80764,0 22.93669,0c4.11454,0 6.69527,3.04014 6.69527,7.08402c0,6.18601 0,15.36872 0,18.96272c0,3.21451 -2.57947,7.42959 -6.69527,7.42959c-14.29008,0 -15.78385,0 -23.45503,0c-3.1278,0 -6.3497,-2.93239 -6.3497,-6.91124z" fill="url(#color-1)" stroke="#000000"/><text transform="translate(229.29803,175.2618) scale(0.23015,0.23015)" font-size="40" xml:space="preserve" fill="#2d2d2d" fill-rule="nonzero" stroke="#2d2d2d" stroke-width="2" stroke-linecap="butt" stroke-linejoin="miter" stroke-miterlimit="10" stroke-dasharray="" stroke-dashoffset="0" font-family="Sans Serif" font-weight="normal" text-anchor="start" style="mix-blend-mode: normal"><tspan x="0" dy="0">PLAY</tspan></text><text transform="translate(233.3335,181.47109) scale(0.12259,0.12259)" font-size="40" xml:space="preserve" fill="#2d2d2d" fill-rule="nonzero" stroke="#2d2d2d" stroke-width="2" stroke-linecap="butt" stroke-linejoin="miter" stroke-miterlimit="10" stroke-dasharray="" stroke-dashoffset="0" font-family="Sans Serif" font-weight="normal" text-anchor="start" style="mix-blend-mode: normal"><tspan x="0" dy="0">YOUR</tspan></text><text transform="translate(226.93669,190.7618) scale(0.23015,0.23015)" font-size="40" xml:space="preserve" fill="#2d2d2d" fill-rule="nonzero" stroke="#2d2d2d" stroke-width="2" stroke-linecap="butt" stroke-linejoin="miter" stroke-miterlimit="10" stroke-dasharray="" stroke-dashoffset="0" font-family="Sans Serif" font-weight="normal" text-anchor="start" style="mix-blend-mode: normal"><tspan x="0" dy="0">SONG</tspan></text></g></g></svg>