<svg version="1.1" xmlns="http://www.w3.org/2000/svg" xmlns:xlink="http://www.w3.org/1999/xlink" width="118.70851" height="48.43675" viewBox="0,0,118.70851,48.43675"><defs><linearGradient x1="206.82618" y1="156.78163" x2="206.82618" y2="234.84099" gradientUnits="userSpaceOnUse" id="color-1"><stop offset="0" stop-color="#d6d6d6"/><stop offset="1" stop-color="#a3a3a3"/></linearGradient></defs><g transform="translate(-180.64574,-155.78162)"><g data-paper-data="{&quot;isPaintingLayer&quot;:true}" fill-rule="nonzero" stroke-width="2" stroke-linecap="butt" stroke-linejoin="miter" stroke-miterlimit="10" stroke-dasharray="" stroke-dashoffset="0" style="mix-blend-mode: normal"><path d="M185.01937,194.26534c0,-8.71598 0,-22.14769 0,-26.80318c0,-3.4587 4.45637,-7.61009 8.89709,-7.61009c10.24518,0 77.46131,0 95.76453,0c5.33011,0 8.67327,3.93829 8.67327,9.17686c0,8.01355 0,19.90913 0,24.56491c0,4.16418 -3.34153,9.62453 -8.67327,9.62453c-18.51183,0 -86.49851,0 -96.43601,0c-4.05185,0 -8.22561,-3.79871 -8.22561,-8.95304z" fill="#424242" stroke="#424242"/><path d="M181.64574,191.1949c0,-8.71598 0,-22.14769 0,-26.80318c0,-3.4587 4.45637,-7.61009 8.89709,-7.61009c10.24518,0 77.46131,0 95.76453,0c5.33011,0 8.67327,3.93829 8.67327,9.17686c0,8.01355 0,19.90913 0,24.56492c0,4.16418 -3.34153,9.62453 -8.67327,9.62453c-18.51183,0 -86.49851,0 -96.43601,0c-4.05185,0 -8.22561,-3.79871 -8.22561,-8.95304z" fill="url(#color-1)" stroke="#000000"/><text transform="translate(201.39383,183.71048) scale(0.36016,0.36016)" font-size="40" xml:space="preserve" fill="#2d2d2d" fill-rule="nonzero" stroke="#2d2d2d" stroke-width="2" stroke-linecap="butt" stroke-linejoin="miter" stroke-miterlimit="10" stroke-dasharray="" stroke-dashoffset="0" font-family="Sans Serif" font-weight="normal" text-anchor="start" style="mix-blend-mode: normal"><tspan x="0" dy="0">TRY AGAIN</tspan></text></g></g></svg>