<svg version="1.1" xmlns="http://www.w3.org/2000/svg" xmlns:xlink="http://www.w3.org/1999/xlink" width="72.61368" height="27.85201" viewBox="0,0,72.61368,27.85201"><defs><linearGradient x1="212.4295" y1="179.57999" x2="255.97181" y2="179.57999" gradientUnits="userSpaceOnUse" id="color-1"><stop offset="0" stop-color="#ed0000"/><stop offset="1" stop-color="#7ce100"/></linearGradient><radialGradient cx="237.38949" cy="175.45557" r="9.23469" gradientUnits="userSpaceOnUse" id="color-2"><stop offset="0" stop-color="#232323"/><stop offset="1" stop-color="#232323" stop-opacity="0"/></radialGradient><radialGradient cx="237.38948" cy="182.59842" r="9.23469" gradientUnits="userSpaceOnUse" id="color-3"><stop offset="0" stop-color="#232323"/><stop offset="1" stop-color="#232323" stop-opacity="0"/></radialGradient><radialGradient cx="236.41281" cy="178.96871" r="10.1093" gradientUnits="userSpaceOnUse" id="color-4"><stop offset="0" stop-color="#232323"/><stop offset="1" stop-color="#232323" stop-opacity="0"/></radialGradient><radialGradient cx="237.89967" cy="188.10863" r="9.23469" gradientUnits="userSpaceOnUse" id="color-5"><stop offset="0" stop-color="#232323"/><stop offset="1" stop-color="#232323" stop-opacity="0"/></radialGradient><radialGradient cx="236.41281" cy="184.47891" r="10.1093" gradientUnits="userSpaceOnUse" id="color-6"><stop offset="0" stop-color="#232323"/><stop offset="1" stop-color="#232323" stop-opacity="0"/></radialGradient></defs><g transform="translate(-203.69315,-166.22088)"><g data-paper-data="{&quot;isPaintingLayer&quot;:true}" fill-rule="nonzero" stroke-linejoin="miter" stroke-miterlimit="10" stroke-dasharray="" stroke-dashoffset="0" style="mix-blend-mode: normal"><path d="M264.55683,179.57999h-49.11368" fill="none" stroke="#340074" stroke-width="23.5" stroke-linecap="round"/><path d="M264.55685,179.57999h-49.11368" fill="none" stroke="url(#color-1)" stroke-width="16.5" stroke-linecap="round"/><path d="M236.21602,174.94536c0,-4.22924 -0.86338,-5.91301 1.12258,-6.8875c0.40898,-0.20068 -0.82005,-1.83698 0.05089,-1.83698c5.10018,0 9.23469,4.13451 9.23469,9.23469c0,5.10018 -4.13451,9.23469 -9.23469,9.23469c-5.10018,0 -1.17347,-4.64471 -1.17347,-9.74489z" fill="url(#color-2)" stroke="none" stroke-width="0" stroke-linecap="butt"/><path d="M236.21601,182.08822c0,-4.22924 -0.86339,-5.91302 1.12257,-6.88751c0.40897,-0.20068 -0.82005,-1.83698 0.05089,-1.83698c5.10018,0 9.23469,4.13451 9.23469,9.23469c0,5.10018 -4.13451,9.23469 -9.23469,9.23469c-5.10018,0 -1.17347,-4.64472 -1.17347,-9.7449z" fill="url(#color-3)" stroke="none" stroke-width="0" stroke-linecap="butt"/><path d="M235.12821,178.41018c0,-4.62979 -0.94516,-6.47303 1.22889,-7.53982c0.44771,-0.21968 -0.89772,-2.01096 0.05571,-2.01096c5.58322,0 10.1093,4.52609 10.1093,10.10931c0,5.58321 -4.52609,10.10931 -10.1093,10.10931c-0.26276,0 1.12903,-0.01127 0.90856,-0.03331c-4.46404,-0.44638 -2.19316,-5.31406 -2.19316,-10.63452z" fill="url(#color-4)" stroke="none" stroke-width="0" stroke-linecap="butt"/><path d="M236.72621,187.59842c0,-4.22924 -0.86339,-5.91302 1.12257,-6.88751c0.40897,-0.20068 -0.82005,-1.83698 0.05089,-1.83698c5.10018,0 9.23469,4.13451 9.23469,9.23469c0,2.37705 -2.58268,3.90612 -4.7958,4.64338c-2.53533,0.84459 -4.74502,0.71376 -4.74502,0.71376c0,0 -0.86734,-0.76717 -0.86734,-5.86734z" fill="url(#color-5)" stroke="none" stroke-width="0" stroke-linecap="butt"/><path d="M235.12821,183.92039c0,-4.62979 -0.94516,-6.47304 1.22889,-7.53982c0.44771,-0.21968 -0.89772,-2.01096 0.05571,-2.01096c5.58322,0 10.1093,4.52609 10.1093,10.1093c0,2.48363 -1.04472,6.12493 -2.79059,7.70106c-2.17885,1.96702 -5.16531,1.57085 -5.2877,1.55861c-4.46404,-0.44638 -3.31562,-4.49773 -3.31562,-9.81819z" fill="url(#color-6)" stroke="none" stroke-width="0" stroke-linecap="butt"/><path d="M238.66282,170.88008v18.69281" fill="none" stroke="#efefef" stroke-width="9" stroke-linecap="round"/></g></g></svg>