<svg version="1.1" xmlns="http://www.w3.org/2000/svg" xmlns:xlink="http://www.w3.org/1999/xlink" width="493" height="375.99999" viewBox="0,0,493,375.99999"><defs><linearGradient x1="-81.5" y1="182.30004" x2="103.5" y2="182.30004" gradientUnits="userSpaceOnUse" id="color-1"><stop offset="0" stop-color="#00daff"/><stop offset="1" stop-color="#00daff" stop-opacity="0"/></linearGradient><linearGradient x1="554.5" y1="176.30004" x2="369.5" y2="176.30004" gradientUnits="userSpaceOnUse" id="color-2"><stop offset="0" stop-color="#00daff"/><stop offset="1" stop-color="#00daff" stop-opacity="0"/></linearGradient></defs><g transform="translate(6.5,8.69995)"><g data-paper-data="{&quot;isPaintingLayer&quot;:true}" fill-rule="nonzero" stroke-linecap="butt" stroke-linejoin="miter" stroke-miterlimit="10" stroke-dasharray="" stroke-dashoffset="0" style="mix-blend-mode: normal"><path d="M-5.5,365.00001v-370h491v370z" fill="#000000" stroke="#000000" stroke-width="2"/><text transform="translate(160.53696,52.18185) scale(0.5,0.5)" font-size="40" xml:space="preserve" fill="#000000" fill-rule="nonzero" stroke="none" stroke-width="1" stroke-linecap="butt" stroke-linejoin="miter" stroke-miterlimit="10" stroke-dasharray="" stroke-dashoffset="0" font-family="Sans Serif" font-weight="normal" text-anchor="start" style="mix-blend-mode: normal"><tspan x="0" dy="0">Ke</tspan></text><path d="M-3.5,367.30004v-370h107v370z" fill="url(#color-1)" stroke="none" stroke-width="0"/><path d="M369.5,361.30005v-370h114v370z" data-paper-data="{&quot;index&quot;:null}" fill="url(#color-2)" stroke="none" stroke-width="0"/><text transform="translate(145.02155,55.26878) scale(1.10672,1.10672)" font-size="40" xml:space="preserve" fill="#63e8ff" fill-rule="nonzero" stroke="#63e8ff" stroke-width="1" stroke-linecap="butt" stroke-linejoin="miter" stroke-miterlimit="10" stroke-dasharray="" stroke-dashoffset="0" font-family="Sans Serif" font-weight="normal" text-anchor="start" style="mix-blend-mode: normal"><tspan x="0" dy="0">KEYBIND</tspan></text><text transform="translate(71.83973,239.15236) scale(0.36642,0.36642)" font-size="40" xml:space="preserve" fill="#ff4c4c" fill-rule="nonzero" stroke="#ff4c4c" stroke-width="1" stroke-linecap="butt" stroke-linejoin="miter" stroke-miterlimit="10" stroke-dasharray="" stroke-dashoffset="0" font-family="Sans Serif" font-weight="normal" text-anchor="start" style="mix-blend-mode: normal"><tspan x="0" dy="0">Red notes:</tspan></text><g fill="#ff4c4c" stroke="none" stroke-width="0"><path d="M97.20933,181.99246c3.97983,0 13.42,0 21,0c5.5904,0 9.32101,4.76869 9.32101,10.91161c0,4.27822 0,9.08989 0,9.08989h-39c0,0 0,-5.31867 0,-9.08989c0,-5.82615 5.25503,-10.91161 8.67899,-10.91161z" data-paper-data="{&quot;index&quot;:null}"/><path d="M88.53034,208.74898c0,-3.77122 0,-7.58839 0,-7.58839h39c0,0 0,3.31017 0,7.58839c0,6.14292 -3.73061,10.91161 -9.32101,10.91161c-7.58,0 -17.02017,0 -21,0c-3.42396,0 -8.67899,-5.08546 -8.67899,-10.91161z" data-paper-data="{&quot;index&quot;:null}"/></g><g><path d="M79.26908,323.44356c-2.73036,-0.0014 -5.35908,-2.43096 -5.35908,-5.58129c0,-4.50004 0,-15.05176 0,-17.52612c0,-2.17271 3.11339,-5.29917 6.22054,-5.31065c7.27667,-0.02691 43.62091,-0.13782 56.24898,-0.18453c3.48393,-0.01289 5.63685,2.3789 5.62417,5.49629c-0.01793,4.40938 -0.0417,15.17798 -0.05194,17.69855c-0.00954,2.34564 -2.20275,5.43523 -6.43284,5.43306c0,0 -49.5103,-0.02185 -56.24983,-0.0253z" fill="#545454" stroke="#1b1b1b" stroke-width="5"/><text transform="translate(84.30576,313.08621) scale(0.32665,0.32665)" font-size="40" xml:space="preserve" fill="#ffffff" fill-rule="nonzero" stroke="none" stroke-width="1" stroke-linecap="butt" stroke-linejoin="miter" stroke-miterlimit="10" stroke-dasharray="" stroke-dashoffset="0" font-family="Sans Serif" font-weight="normal" text-anchor="start" style="mix-blend-mode: normal"><tspan x="0" dy="0">change</tspan></text></g><text transform="translate(170.70335,239.15236) scale(0.36642,0.36642)" font-size="40" xml:space="preserve" fill="#00daff" fill-rule="nonzero" stroke="#00daff" stroke-width="1" stroke-linecap="butt" stroke-linejoin="miter" stroke-miterlimit="10" stroke-dasharray="" stroke-dashoffset="0" font-family="Sans Serif" font-weight="normal" text-anchor="start" style="mix-blend-mode: normal"><tspan x="0" dy="0">Blue notes:</tspan></text><g fill="#00daff" stroke="none" stroke-width="0"><path d="M197.4366,181.99246c3.97983,0 13.42,0 21,0c5.5904,0 9.32101,4.76869 9.32101,10.91161c0,4.27822 0,9.08989 0,9.08989h-39c0,0 0,-5.31867 0,-9.08989c0,-5.82615 5.25503,-10.91161 8.67899,-10.91161z" data-paper-data="{&quot;index&quot;:null}"/><path d="M188.75761,208.74899c0,-3.77122 0,-7.58839 0,-7.58839h39c0,0 0,3.31017 0,7.58839c0,6.14292 -3.73061,10.91161 -9.32101,10.91161c-7.58,0 -17.02017,0 -21,0c-3.42396,0 -8.67899,-5.08546 -8.67899,-10.91161z" data-paper-data="{&quot;index&quot;:null}"/></g><g><path d="M179.49634,323.44356c-2.73036,-0.0014 -5.35908,-2.43096 -5.35908,-5.58129c0,-4.50004 0,-15.05176 0,-17.52612c0,-2.17271 3.11339,-5.29917 6.22054,-5.31065c7.27667,-0.02691 43.62091,-0.13782 56.24898,-0.18453c3.48393,-0.01289 5.63685,2.3789 5.62417,5.49629c-0.01793,4.40938 -0.0417,15.17798 -0.05194,17.69855c-0.00954,2.34564 -2.20275,5.43523 -6.43284,5.43306c0,0 -49.5103,-0.02185 -56.24983,-0.0253z" fill="#545454" stroke="#1b1b1b" stroke-width="5"/><text transform="translate(184.53302,313.08621) scale(0.32665,0.32665)" font-size="40" xml:space="preserve" fill="#ffffff" fill-rule="nonzero" stroke="none" stroke-width="1" stroke-linecap="butt" stroke-linejoin="miter" stroke-miterlimit="10" stroke-dasharray="" stroke-dashoffset="0" font-family="Sans Serif" font-weight="normal" text-anchor="start" style="mix-blend-mode: normal"><tspan x="0" dy="0">change</tspan></text></g><text transform="translate(256.61245,239.15236) scale(0.36642,0.36642)" font-size="40" xml:space="preserve" fill="#25ec00" fill-rule="nonzero" stroke="#25ec00" stroke-width="1" stroke-linecap="butt" stroke-linejoin="miter" stroke-miterlimit="10" stroke-dasharray="" stroke-dashoffset="0" font-family="Sans Serif" font-weight="normal" text-anchor="start" style="mix-blend-mode: normal"><tspan x="0" dy="0">Green notes:</tspan></text><g fill="#25ec00" stroke="none" stroke-width="0"><path d="M290.16388,181.99246c3.97983,0 13.42,0 21,0c5.5904,0 9.32101,4.76869 9.32101,10.91161c0,4.27822 0,9.08989 0,9.08989h-39c0,0 0,-5.31867 0,-9.08989c0,-5.82615 5.25503,-10.91161 8.67899,-10.91161z" data-paper-data="{&quot;index&quot;:null}"/><path d="M281.48489,208.74899c0,-3.77122 0,-7.58839 0,-7.58839h39c0,0 0,3.31017 0,7.58839c0,6.14292 -3.73061,10.91161 -9.32101,10.91161c-7.58,0 -17.02017,0 -21,0c-3.42396,0 -8.67899,-5.08546 -8.67899,-10.91161z" data-paper-data="{&quot;index&quot;:null}"/></g><g><path d="M272.22362,323.44356c-2.73036,-0.0014 -5.35908,-2.43096 -5.35908,-5.58129c0,-4.50004 0,-15.05176 0,-17.52612c0,-2.17271 3.11339,-5.29917 6.22054,-5.31065c7.27667,-0.02691 43.62091,-0.13782 56.24898,-0.18453c3.48393,-0.01289 5.63685,2.3789 5.62417,5.49629c-0.01793,4.40938 -0.0417,15.17798 -0.05194,17.69855c-0.00954,2.34564 -2.20275,5.43523 -6.43284,5.43306c0,0 -49.5103,-0.02185 -56.24983,-0.0253z" fill="#545454" stroke="#1b1b1b" stroke-width="5"/><text transform="translate(277.2603,313.08621) scale(0.32665,0.32665)" font-size="40" xml:space="preserve" fill="#ffffff" fill-rule="nonzero" stroke="none" stroke-width="1" stroke-linecap="butt" stroke-linejoin="miter" stroke-miterlimit="10" stroke-dasharray="" stroke-dashoffset="0" font-family="Sans Serif" font-weight="normal" text-anchor="start" style="mix-blend-mode: normal"><tspan x="0" dy="0">change</tspan></text></g><g><path d="M272.22362,323.44356c-2.73036,-0.0014 -5.35908,-2.43096 -5.35908,-5.58129c0,-4.50004 0,-15.05176 0,-17.52612c0,-2.17271 3.11339,-5.29917 6.22054,-5.31065c7.27667,-0.02691 43.62091,-0.13782 56.24898,-0.18453c3.48393,-0.01289 5.63685,2.3789 5.62417,5.49629c-0.01793,4.40938 -0.0417,15.17798 -0.05194,17.69855c-0.00954,2.34564 -2.20275,5.43523 -6.43284,5.43306c0,0 -49.5103,-0.02185 -56.24983,-0.0253z" fill="#545454" stroke="#1b1b1b" stroke-width="5"/><text transform="translate(277.2603,313.08621) scale(0.32665,0.32665)" font-size="40" xml:space="preserve" fill="#ffffff" fill-rule="nonzero" stroke="none" stroke-width="1" stroke-linecap="butt" stroke-linejoin="miter" stroke-miterlimit="10" stroke-dasharray="" stroke-dashoffset="0" font-family="Sans Serif" font-weight="normal" text-anchor="start" style="mix-blend-mode: normal"><tspan x="0" dy="0">change</tspan></text></g><text transform="translate(357.52153,239.15236) scale(0.36642,0.36642)" font-size="40" xml:space="preserve" fill="#fffa00" fill-rule="nonzero" stroke="#fffa00" stroke-width="1" stroke-linecap="butt" stroke-linejoin="miter" stroke-miterlimit="10" stroke-dasharray="" stroke-dashoffset="0" font-family="Sans Serif" font-weight="normal" text-anchor="start" style="mix-blend-mode: normal"><tspan x="0" dy="0">Yellow notes:</tspan></text><g fill="#fffa00" stroke="none" stroke-width="0"><path d="M391.07296,181.99246c3.97983,0 13.42,0 21,0c5.5904,0 9.32101,4.76869 9.32101,10.91161c0,4.27822 0,9.08989 0,9.08989h-39c0,0 0,-5.31867 0,-9.08989c0,-5.82615 5.25503,-10.91161 8.67899,-10.91161z" data-paper-data="{&quot;index&quot;:null}"/><path d="M382.39397,208.74899c0,-3.77122 0,-7.58839 0,-7.58839h39c0,0 0,3.31017 0,7.58839c0,6.14292 -3.73061,10.91161 -9.32101,10.91161c-7.58,0 -17.02017,0 -21,0c-3.42396,0 -8.67899,-5.08546 -8.67899,-10.91161z" data-paper-data="{&quot;index&quot;:null}"/></g><g><path d="M373.1327,323.44356c-2.73036,-0.0014 -5.35908,-2.43096 -5.35908,-5.58129c0,-4.50004 0,-15.05176 0,-17.52612c0,-2.17271 3.11339,-5.29917 6.22054,-5.31065c7.27667,-0.02691 43.62091,-0.13782 56.24898,-0.18453c3.48393,-0.01289 5.63685,2.3789 5.62417,5.49629c-0.01793,4.40938 -0.0417,15.17798 -0.05194,17.69855c-0.00954,2.34564 -2.20275,5.43523 -6.43284,5.43306c0,0 -49.5103,-0.02185 -56.24983,-0.0253z" fill="#545454" stroke="#1b1b1b" stroke-width="5"/><text transform="translate(378.16938,313.08621) scale(0.32665,0.32665)" font-size="40" xml:space="preserve" fill="#ffffff" fill-rule="nonzero" stroke="none" stroke-width="1" stroke-linecap="butt" stroke-linejoin="miter" stroke-miterlimit="10" stroke-dasharray="" stroke-dashoffset="0" font-family="Sans Serif" font-weight="normal" text-anchor="start" style="mix-blend-mode: normal"><tspan x="0" dy="0">change</tspan></text></g></g></g></svg>