<svg version="1.1" xmlns="http://www.w3.org/2000/svg" xmlns:xlink="http://www.w3.org/1999/xlink" width="641.45462" height="95.42142" viewBox="0,0,641.45462,95.42142"><defs><linearGradient x1="906.29467" y1="-845.06224" x2="906.29467" y2="1156.28419" gradientUnits="userSpaceOnUse" id="color-1"><stop offset="0" stop-color="#262626"/><stop offset="1" stop-color="#262626" stop-opacity="0"/></linearGradient><linearGradient x1="560.92422" y1="-398.75381" x2="560.92422" y2="594.45327" gradientUnits="userSpaceOnUse" id="color-2"><stop offset="0" stop-color="#1c1c1c"/><stop offset="1" stop-color="#1c1c1c" stop-opacity="0"/></linearGradient><linearGradient x1="435.62783" y1="22.89052" x2="435.62783" y2="50.9409" gradientUnits="userSpaceOnUse" id="color-3"><stop offset="0" stop-color="#fbe600"/><stop offset="1" stop-color="#ffe000"/></linearGradient></defs><g transform="translate(155.5,3.88973)"><g data-paper-data="{&quot;isPaintingLayer&quot;:true}" fill-rule="nonzero" stroke-linecap="butt" stroke-linejoin="miter" stroke-miterlimit="10" stroke-dasharray="" stroke-dashoffset="0" style="mix-blend-mode: normal"><path d="M482.36561,76.48044l-488.22222,-0.10702v-79.48947l488.98611,-0.77368z" fill="url(#color-1)" stroke="#1b1b1b" stroke-width="0"/><text transform="translate(141.22668,51.16384) scale(0.88094,0.88094)" font-size="40" xml:space="preserve" fill="#000000" fill-rule="nonzero" stroke="#000000" stroke-width="4" stroke-linecap="butt" stroke-linejoin="miter" stroke-miterlimit="10" stroke-dasharray="" stroke-dashoffset="0" font-family="Sans Serif" font-weight="normal" text-anchor="start" style="mix-blend-mode: normal"><tspan x="0" dy="0">soundtrack </tspan></text><text transform="translate(140.56002,50.16384) scale(0.88094,0.88094)" font-size="40" xml:space="preserve" fill="#ffffff" fill-rule="nonzero" stroke="#ffffff" stroke-width="2" stroke-linecap="butt" stroke-linejoin="miter" stroke-miterlimit="10" stroke-dasharray="" stroke-dashoffset="0" font-family="Sans Serif" font-weight="normal" text-anchor="start" style="mix-blend-mode: normal"><tspan x="0" dy="0">soundtrack </tspan></text><path d="M-155.5,72v-1h4v1z" fill="#d71c1c" stroke="none" stroke-width="0"/><path d="M-4.75966,91.53169v-93.75h490.71428v93.75z" fill="none" stroke="none" stroke-width="0"/><path d="M460.15056,58.57369c-22.70602,-0.01163 -72.53513,-0.03672 -83.86346,-0.04252c-4.5894,-0.00235 -9.00797,-4.08615 -9.00797,-9.38148c0,-7.56402 0,-17.02434 0,-21.18344c0,-3.65206 5.23323,-8.90726 10.45597,-8.92657c12.2312,-0.04524 62.63576,-0.23166 83.86203,-0.31018c5.85607,-0.02166 9.47487,3.99864 9.45356,9.2386c-0.03013,7.41163 -0.07009,17.2365 -0.08731,21.47327c-0.01603,3.94273 -3.70256,9.13597 -10.81283,9.13232z" fill="url(#color-2)" stroke="#1b1b1b" stroke-width="0"/><path d="M424.31435,33.4626c2.07682,0.06579 7.94601,0.25169 7.94601,0.25169c0,0 1.83667,-5.97403 2.4483,-7.96347c0.36656,-1.19229 1.42992,-1.14245 1.81848,0.0699c0.63561,1.9832 2.51303,7.8411 2.51303,7.8411c0,0 5.6951,-0.14246 7.75841,-0.21301c1.26254,-0.04316 1.88024,1.16447 0.86057,1.9257c-1.68495,1.25789 -6.57237,4.74172 -6.57237,4.74172c0,0 1.75394,5.30743 2.4097,7.29173c0.45229,1.36865 -0.5764,2.2061 -1.70976,1.37528c-1.66655,-1.22168 -6.17571,-4.52716 -6.17571,-4.52716c0,0 -4.31402,3.318 -5.91731,4.55113c-1.09779,0.84434 -2.23427,0.33398 -1.86019,-0.91294c0.59485,-1.9828 2.31113,-7.70362 2.31113,-7.70362c0,0 -4.79575,-3.58721 -6.48168,-4.84827c-1.07862,-0.80681 -0.68788,-1.92222 0.6514,-1.87979z" fill="url(#color-3)" stroke="#353535" stroke-width="2"/></g></g></svg>