<svg version="1.1" xmlns="http://www.w3.org/2000/svg" xmlns:xlink="http://www.w3.org/1999/xlink" width="137.33138" height="266.83779" viewBox="0,0,137.33138,266.83779"><defs><linearGradient x1="239.00006" y1="116.99351" x2="239.00006" y2="154.99351" gradientUnits="userSpaceOnUse" id="color-1"><stop offset="0" stop-color="#6cef00"/><stop offset="1" stop-color="#5ab900"/></linearGradient><linearGradient x1="239.00007" y1="148.99351" x2="239.00007" y2="186.99351" gradientUnits="userSpaceOnUse" id="color-2"><stop offset="0" stop-color="#ffffff"/><stop offset="1" stop-color="#a3a3a3"/></linearGradient></defs><g transform="translate(-156.0717,-99.25)"><g data-paper-data="{&quot;isPaintingLayer&quot;:true}" fill-rule="nonzero" stroke-linejoin="miter" stroke-miterlimit="10" stroke-dasharray="" stroke-dashoffset="0" style="mix-blend-mode: normal"><path d="M186.84711,180.6806c0,-37.51293 0,-40.67799 0,-60.68709c0,-9.17037 10.97148,-18.49351 19.90299,-18.49351c12.04751,0 44.52528,0 65.5,0c11.0469,0 18.90299,10.48399 18.90299,20.49351c0,20.72233 0,20.65479 0,57.18709c0,11.82199 -7.02933,20.38053 -19.40298,20.38053c-21.82978,0 -55.56862,0 -67,0c-8.01519,0 -17.90298,-6.47902 -17.90298,-18.88053z" fill="#2d2d2d" stroke="#ffffff" stroke-width="4.5" stroke-linecap="butt"/><path d="M199.75006,146.99351c0,-7.78817 0,-19.04008 0,-23.2c0,-3.09052 3.982,-6.8 7.95,-6.8c9.15459,0 46.44514,0 62.8,0c4.76272,0 7.75,3.51907 7.75,8.2c0,7.16052 0,17.03982 0,21.2c0,3.7209 -2.98582,8.6 -7.75,8.6c-16.54126,0 -54.52035,0 -63.4,0c-3.62054,0 -7.35,-3.39434 -7.35,-8z" fill="url(#color-1)" stroke="#000000" stroke-width="2" stroke-linecap="butt"/><text transform="translate(219.70009,134.34238) scale(0.34537,0.34537)" font-size="40" xml:space="preserve" fill="#2d2d2d" fill-rule="nonzero" stroke="#2d2d2d" stroke-width="2" stroke-linecap="butt" stroke-linejoin="miter" stroke-miterlimit="10" stroke-dasharray="" stroke-dashoffset="0" font-family="Sans Serif" font-weight="normal" text-anchor="start" style="mix-blend-mode: normal"><tspan x="0" dy="0">START</tspan></text><text transform="translate(209.06345,145.86707) scale(0.26522,0.26522)" font-size="40" xml:space="preserve" fill="#2d2d2d" fill-rule="nonzero" stroke="#2d2d2d" stroke-width="2" stroke-linecap="butt" stroke-linejoin="miter" stroke-miterlimit="10" stroke-dasharray="" stroke-dashoffset="0" font-family="Sans Serif" font-weight="normal" text-anchor="start" style="mix-blend-mode: normal"><tspan x="0" dy="0">RECORDING</tspan></text><path d="M186.8471,344.95726c0,-37.51293 0,-82.03842 0,-102.04752c0,-9.17037 10.97148,-18.49351 19.90299,-18.49351c12.04751,0 44.52528,0 65.5,0c11.0469,0 18.90299,10.48399 18.90299,20.49351c0,20.72233 0,62.01522 0,98.54752c0,11.82199 -7.02933,20.38053 -19.40298,20.38053c-21.82978,0 -55.56862,0 -67,0c-8.01519,0 -17.90298,-6.47902 -17.90298,-18.88053z" fill="#2d2d2d" stroke="#ffffff" stroke-width="4.5" stroke-linecap="butt"/><text transform="translate(195.01821,249.37437) scale(0.33578,0.33578)" font-size="40" xml:space="preserve" fill="#ffffff" fill-rule="nonzero" stroke="#ffffff" stroke-width="2" stroke-linecap="butt" stroke-linejoin="miter" stroke-miterlimit="10" stroke-dasharray="" stroke-dashoffset="0" font-family="Sans Serif" font-weight="normal" text-anchor="start" style="mix-blend-mode: normal"><tspan x="0" dy="0">NOTE EDITOR</tspan></text><text transform="translate(198.17768,266.62868) scale(0.24391,0.24391)" font-size="40" xml:space="preserve" fill="#dadada" fill-rule="nonzero" stroke="#dadada" stroke-width="1" stroke-linecap="butt" stroke-linejoin="miter" stroke-miterlimit="10" stroke-dasharray="" stroke-dashoffset="0" font-family="Sans Serif" font-weight="normal" text-anchor="start" style="mix-blend-mode: normal"><tspan x="0" dy="0">Editing: </tspan></text><text transform="translate(210.17168,290.8193) scale(0.24391,0.24391)" font-size="40" xml:space="preserve" fill="#dadada" fill-rule="nonzero" stroke="#dadada" stroke-width="1" stroke-linecap="butt" stroke-linejoin="miter" stroke-miterlimit="10" stroke-dasharray="" stroke-dashoffset="0" font-family="Sans Serif" font-weight="normal" text-anchor="start" style="mix-blend-mode: normal"><tspan x="0" dy="0">Instrument:</tspan></text><text transform="translate(225.11051,330.96913) scale(0.24391,0.24391)" font-size="40" xml:space="preserve" fill="#dadada" fill-rule="nonzero" stroke="#dadada" stroke-width="1" stroke-linecap="butt" stroke-linejoin="miter" stroke-miterlimit="10" stroke-dasharray="" stroke-dashoffset="0" font-family="Sans Serif" font-weight="normal" text-anchor="start" style="mix-blend-mode: normal"><tspan x="0" dy="0">Pitch:</tspan></text><path d="M201.28622,307.17156c1.48445,-0.79932 6.22452,-3.35166 8.9197,-4.80292c1.14534,-0.61672 1.92139,0.07212 1.92139,1.04671c0,1.65085 0,6.79061 0,9.62453c0,1.11449 -0.7046,1.58867 -1.76271,1.01892c-2.68398,-1.44522 -7.58594,-4.0586 -9.08929,-4.8681c-0.84872,-0.457 -0.86434,-1.54785 0.01091,-2.01914z" fill="#ffffff" stroke="none" stroke-width="0" stroke-linecap="butt"/><path d="M277.25834,309.1907c-1.50335,0.8095 -6.40531,3.42289 -9.08929,4.86811c-1.05811,0.56975 -1.76271,0.09557 -1.76271,-1.01892c0,-2.83392 0,-7.97368 0,-9.62453c0,-0.97458 0.77606,-1.66343 1.92139,-1.04671c2.69519,1.45126 7.43526,4.0036 8.9197,4.80291c0.87525,0.47129 0.85964,1.56214 0.01091,2.01914z" data-paper-data="{&quot;index&quot;:null}" fill="#ffffff" stroke="none" stroke-width="0" stroke-linecap="butt"/><text transform="translate(225.01821,310.19584) scale(0.23955,0.23955)" font-size="40" xml:space="preserve" fill="#ffffff" fill-rule="nonzero" stroke="#ffffff" stroke-width="2" stroke-linecap="butt" stroke-linejoin="miter" stroke-miterlimit="10" stroke-dasharray="" stroke-dashoffset="0" font-family="Sans Serif" font-weight="normal" text-anchor="start" style="mix-blend-mode: normal"><tspan x="0" dy="0">piano</tspan></text><path d="M210.16669,292.60446h54.66667" fill="none" stroke="#dadada" stroke-width="1" stroke-linecap="round"/><path d="M249.83338,332.60446h-24" fill="none" stroke="#dadada" stroke-width="1" stroke-linecap="round"/><path d="M204.83338,345.93779v-2.33333h68.33333v2.33333z" fill="#dadada" stroke="none" stroke-width="0" stroke-linecap="butt"/><path d="M206.96672,349.73779h-2.33333v-10.29333h2.33333z" fill="#dadada" stroke="none" stroke-width="0" stroke-linecap="butt"/><path d="M273.56667,349.73779h-2.33333v-10.29333h2.33333z" fill="#dadada" stroke="none" stroke-width="0" stroke-linecap="butt"/><path d="M228.10004,352.69779v-16h4.8v16z" fill="#ffffff" stroke="none" stroke-width="0" stroke-linecap="butt"/><path d="M199.75007,178.99351c0,-7.78817 0,-3.79008 0,-7.95c0,-3.09052 3.982,-6.8 7.95,-6.8c9.15459,0 46.44514,0 62.8,0c4.76272,0 7.75,3.51907 7.75,8.2c0,7.16052 0,1.78982 0,5.95c0,3.7209 -2.98582,8.6 -7.75,8.6c-16.54126,0 -54.52035,0 -63.4,0c-3.62054,0 -7.35,-3.39434 -7.35,-8z" fill="url(#color-2)" stroke="#000000" stroke-width="2" stroke-linecap="butt"/><text transform="translate(204.20008,178.62972) scale(0.20057,0.20057)" font-size="40" xml:space="preserve" fill="#2d2d2d" fill-rule="nonzero" stroke="#2d2d2d" stroke-width="2" stroke-linecap="butt" stroke-linejoin="miter" stroke-miterlimit="10" stroke-dasharray="" stroke-dashoffset="0" font-family="Sans Serif" font-weight="normal" text-anchor="start" style="mix-blend-mode: normal"><tspan x="0" dy="0">PLAY YOUR SONG!</tspan></text><g fill="#2d2d2d" stroke-width="0" stroke-linecap="butt"><path d="M156.07538,218.93769c0,0 0,-1.26214 0,-2.66338c0,-1.69462 0,-5.61604 0,-5.61604h3.52941c0,0 0,3.74295 0,5.41212c0,0.6123 0.52072,1.20683 1.25491,1.08628c0.58824,-0.09659 -1.25491,2.9575 -1.25491,2.9575z" stroke="#2d2d2d"/><path d="M179.7684,220.6399c-5.12004,0 -19.38123,0 -22.05882,0c-0.86461,0 -1.63787,-1.04473 -1.63787,-1.60088c0,-0.60515 0,-1.89544 0,-1.89544h25.33455c0,0 0.00001,1.29029 0.00001,1.89544c0,0.55614 -0.46934,1.60088 -1.63786,1.60088z" stroke="#2d2d2d"/><path d="M177.89891,220.11415c0,0 -2.08213,-2.7979 -1.09412,-2.9575c0.52941,-0.08552 1.09412,-0.43886 1.09412,-1.32157c0,-2.18974 0,-5.17682 0,-5.17682h3.52941c0,0 0,4.46735 0,6.20427c0,1.25743 -0.41176,2.78102 -0.41176,2.78102z" stroke="#2d2d2d"/><g stroke="none"><path d="M167.50901,211.90029c0,-0.57217 0.46384,-1.03601 1.03601,-1.03601c0.57217,0 1.03601,0.46384 1.03601,1.03601c0,0.57217 -0.46384,1.03602 -1.03601,1.03602c-0.57217,0 -1.03601,-0.46384 -1.03601,-1.03602z" data-paper-data="{&quot;index&quot;:null}"/><path d="M171.84142,205.18192c0,-0.57217 0.46384,-1.03602 1.03601,-1.03602c0.57217,0 1.03601,0.46384 1.03601,1.03602c0,0.57217 -0.46384,1.03601 -1.03601,1.03601c-0.57217,0 -1.03601,-0.46384 -1.03601,-1.03601z" data-paper-data="{&quot;index&quot;:null}"/><path d="M163.55334,205.18192c0,-0.57217 0.46384,-1.03602 1.03601,-1.03602c0.57217,0 1.03601,0.46384 1.03601,1.03602c0,0.57217 -0.46384,1.03601 -1.03601,1.03601c-0.57217,0 -1.03601,-0.46384 -1.03601,-1.03601z" data-paper-data="{&quot;index&quot;:null}"/><path d="M163.67891,205.59005l1.00367,-1.43089l7.90477,-0.03015l1.20051,1.58661l-4.33241,6.65559h-1.82087z" data-paper-data="{&quot;index&quot;:null}"/><path d="M166.37882,197.36475h4.70914v7.22068h-4.70914z" data-paper-data="{&quot;index&quot;:null}"/><path d="M169.01594,197.39614c0,-0.57217 0.46384,-1.03601 1.03601,-1.03601c0.57217,0 1.03602,0.46384 1.03602,1.03601c0,0.57217 -0.46384,1.03601 -1.03602,1.03601c-0.57217,0 -1.03601,-0.46384 -1.03601,-1.03601z" data-paper-data="{&quot;index&quot;:null}"/><path d="M166.37882,197.39614c0,-0.57217 0.46384,-1.03601 1.03601,-1.03601c0.57217,0 1.03601,0.46384 1.03601,1.03601c0,0.57217 -0.46384,1.03601 -1.03601,1.03601c-0.57217,0 -1.03601,-0.46384 -1.03601,-1.03601z" data-paper-data="{&quot;index&quot;:null}"/><path d="M167.5718,196.36013h2.69991v1.88366h-2.69991z" data-paper-data="{&quot;index&quot;:null}"/></g></g></g></g></svg>