<svg version="1.1" xmlns="http://www.w3.org/2000/svg" xmlns:xlink="http://www.w3.org/1999/xlink" width="63.54788" height="60.79243" viewBox="0,0,63.54788,60.79243"><defs><linearGradient x1="238.23316" y1="145.88537" x2="238.23316" y2="210.5264" gradientUnits="userSpaceOnUse" id="color-1"><stop offset="0" stop-color="#e0cd00"/><stop offset="1" stop-color="#ffe000"/></linearGradient></defs><g transform="translate(-208.22606,-149.47806)"><g data-paper-data="{&quot;isPaintingLayer&quot;:true}" fill-rule="nonzero" stroke-width="2" stroke-linecap="butt" stroke-linejoin="miter" stroke-miterlimit="10" stroke-dasharray="" stroke-dashoffset="0" style="mix-blend-mode: normal"><path d="M215.79804,173.20286c4.78594,0.1516 18.31129,0.58002 18.31129,0.58002c0,0 4.23252,-13.76691 5.642,-18.3515c0.84473,-2.7476 3.29521,-2.63274 4.19062,0.16107c1.46474,4.57021 5.79118,18.0695 5.79118,18.0695c0,0 13.12414,-0.3283 17.87896,-0.49087c2.90949,-0.09947 4.33292,2.68349 1.98313,4.4377c-3.88289,2.89874 -15.14578,10.9271 -15.14578,10.9271c0,0 4.04189,12.23076 5.55307,16.8035c1.0423,3.15402 -1.3283,5.08387 -3.94007,3.16928c-3.8405,-2.81531 -14.23168,-10.43267 -14.23168,-10.43267c0,0 -9.9415,7.64622 -13.63623,10.48791c-2.52982,1.94574 -5.14878,0.76965 -4.28672,-2.10384c1.37082,-4.56928 5.3259,-17.75268 5.3259,-17.75268c0,0 -11.05161,-8.26658 -14.93677,-11.17266c-2.48563,-1.85925 -1.58521,-4.42967 1.50111,-4.3319z" fill="#1e1e1e" stroke="#1e1e1e"/><path d="M212.16167,170.24832c4.78594,0.1516 18.31129,0.58002 18.31129,0.58002c0,0 4.23252,-13.76691 5.642,-18.3515c0.84473,-2.7476 3.29521,-2.63274 4.19062,0.16107c1.46474,4.57021 5.79118,18.0695 5.79118,18.0695c0,0 13.12414,-0.3283 17.87896,-0.49087c2.90949,-0.09947 4.33292,2.68349 1.98313,4.4377c-3.88289,2.89874 -15.14578,10.9271 -15.14578,10.9271c0,0 4.04189,12.23076 5.55307,16.8035c1.0423,3.15402 -1.3283,5.08387 -3.94007,3.16928c-3.8405,-2.81531 -14.23168,-10.43267 -14.23168,-10.43267c0,0 -9.9415,7.64622 -13.63623,10.48791c-2.52982,1.94574 -5.14878,0.76965 -4.28672,-2.10384c1.37082,-4.56928 5.3259,-17.75268 5.3259,-17.75268c0,0 -11.05161,-8.26658 -14.93677,-11.17266c-2.48563,-1.85925 -1.58521,-4.42967 1.50111,-4.3319z" fill="url(#color-1)" stroke="#ffffff"/></g></g></svg>