<svg version="1.1" xmlns="http://www.w3.org/2000/svg" xmlns:xlink="http://www.w3.org/1999/xlink" width="34.63019" height="29.06004" viewBox="0,0,34.63019,29.06004"><defs><radialGradient cx="239.85111" cy="187.32532" r="17.38311" gradientUnits="userSpaceOnUse" id="color-1"><stop offset="0" stop-color="#201a1a"/><stop offset="1" stop-color="#201a1a" stop-opacity="0"/></radialGradient><radialGradient cx="239.52661" cy="183.49174" r="17.46625" gradientUnits="userSpaceOnUse" id="color-2"><stop offset="0" stop-color="#ffcaca"/><stop offset="1" stop-color="#fc1212"/></radialGradient><radialGradient cx="240.34237" cy="182.56387" r="16.43837" gradientUnits="userSpaceOnUse" id="color-3"><stop offset="0" stop-color="#ff5e5e"/><stop offset="1" stop-color="#ff5e5e" stop-opacity="0"/></radialGradient><radialGradient cx="240.38015" cy="183.69755" r="14.14079" gradientUnits="userSpaceOnUse" id="color-4"><stop offset="0" stop-color="#ffa7a7"/><stop offset="1" stop-color="#fc7d7d"/></radialGradient><radialGradient cx="239.47321" cy="181.27903" r="10.27872" gradientUnits="userSpaceOnUse" id="color-5"><stop offset="0" stop-color="#ffcfcf"/><stop offset="1" stop-color="#ffcfcf" stop-opacity="0"/></radialGradient></defs><g transform="translate(-222.5738,-169.94221)"><g data-paper-data="{&quot;isPaintingLayer&quot;:true}" fill-rule="nonzero" stroke="none" stroke-width="0" stroke-linecap="butt" stroke-linejoin="miter" stroke-miterlimit="10" stroke-dasharray="" stroke-dashoffset="0" style="mix-blend-mode: normal"><path d="M224.70971,178.78033c2.98421,-5.27654 8.64688,-8.83812 15.1414,-8.83812c6.31972,0 11.85176,3.37243 14.89465,8.41582c1.57964,2.61814 -31.4632,2.94573 -30.03605,0.4223z" fill="url(#color-1)"/><path d="M247.83498,183.23969c-2.4397,0 -8.97008,0.20002 -13.91183,0.12552c-4.302,-0.06486 -7.24184,-0.40557 -7.24184,-0.40557l-4.10751,-5.28375c0,0 3.83301,1.17222 4.53508,1.01176c0.298,-0.06811 2.87804,-0.11482 4.53206,-0.49044c1.03809,-0.23575 0.57543,-2.31189 0.57543,-2.31189c0,0 2.95998,1.83535 5.27857,2.056c1.48991,0.14179 12.48384,-3.23936 12.48384,-3.23936c0,0 -2.05136,3.97328 -1.58323,3.94209c2.20909,-0.14718 8.80845,-2.12393 8.80845,-2.12393l-3.8052,6.43952c0,0 -3.55123,0.28006 -5.56381,0.28006z" data-paper-data="{&quot;index&quot;:null}" fill="url(#color-2)"/><path d="M223.90399,182.56387c0,-2.60106 3.3578,-4.1434 3.7102,-3.78567c0.55092,0.55925 1.23095,0.69188 1.88789,1.10192c1.66986,1.0423 3.9551,0.45418 7.89273,0.45418c5.02525,0 10.12464,-0.58691 13.94635,-0.92108c3.08262,-0.26954 5.4396,-0.90277 5.4396,3.15065c0,9.07866 -7.35971,16.43838 -16.43837,16.43838c-9.07866,0 -16.43837,-7.35972 -16.43837,-16.43838z" fill="url(#color-3)"/><path d="M229.14915,183.26675l-3.32547,-5.33586c0,0 5.58764,1.72276 7.37613,1.84193c1.58949,0.1059 7.96641,-2.76588 10.95921,-2.80657c3.01943,-0.04106 5.37325,2.63586 6.2746,2.84186c0.5684,0.12991 3.67163,-0.81912 3.67163,-0.81912l-3.32547,4.27776c0,0 -2.38011,0.27585 -5.86304,0.32836c-4.00087,0.06031 -9.28791,-0.10162 -11.26311,-0.10162c-1.62939,0 -4.50449,-0.22674 -4.50449,-0.22674z" fill="url(#color-4)"/><path d="M229.1945,181.27903c0,-2.80552 0.80496,-1.59984 2.53383,-1.34448c1.12154,0.16566 2.43187,0.2924 4.24899,-0.41183c1.04964,-0.40679 2.52019,-1.79589 3.57147,-1.79589c2.83686,0 3.38346,1.6617 5.33773,1.38607c1.95638,-0.27593 4.8654,-0.67379 4.8654,2.16613c0,5.67677 -4.60194,10.27871 -10.27872,10.27871c-5.67677,0 -10.27871,-4.60194 -10.27871,-10.27871z" fill="url(#color-5)"/></g></g></svg>