<svg version="1.1" xmlns="http://www.w3.org/2000/svg" xmlns:xlink="http://www.w3.org/1999/xlink" width="63.33333" height="103.24999" viewBox="0,0,63.33333,103.24999"><g transform="translate(-208.33339,-161.91669)"><g data-paper-data="{&quot;isPaintingLayer&quot;:true}" fill-rule="nonzero" stroke="none" stroke-width="0" stroke-linecap="butt" stroke-linejoin="miter" stroke-miterlimit="10" stroke-dasharray="" stroke-dashoffset="0" style="mix-blend-mode: normal"><path d="M229.17904,161.91669c3.97983,0 13.42,0 21,0c5.5904,0 9.32101,4.76869 9.32101,10.91161c0,4.27822 0,9.08989 0,9.08989h-39c0,0 0,-5.31867 0,-9.08989c0,-5.82615 5.25503,-10.91161 8.67899,-10.91161z" data-paper-data="{&quot;index&quot;:null}" fill="#25ec00"/><path d="M220.50005,188.67324c0,-3.77122 0,-7.58839 0,-7.58839h39c0,0 0,3.31017 0,7.58839c0,6.14292 -3.73061,10.91161 -9.32101,10.91161c-7.58,0 -17.02017,0 -21,0c-3.42396,0 -8.67899,-5.08546 -8.67899,-10.91161z" data-paper-data="{&quot;index&quot;:null}" fill="#25ec00"/><path d="M208.3334,265.16668v-76h63.33333v76z" fill="none"/></g></g></svg>