<svg version="1.1" xmlns="http://www.w3.org/2000/svg" xmlns:xlink="http://www.w3.org/1999/xlink" width="495" height="523.34489" viewBox="0,0,495,523.34489"><defs><linearGradient x1="141.5" y1="182.30001" x2="-7.5" y2="182.30001" gradientUnits="userSpaceOnUse" id="color-1"><stop offset="0" stop-color="#000000"/><stop offset="1" stop-color="#8a0000"/></linearGradient><linearGradient x1="222.5" y1="182.30001" x2="-7.5" y2="182.30001" gradientUnits="userSpaceOnUse" id="color-2"><stop offset="0" stop-color="#000000"/><stop offset="1" stop-color="#8a0000"/></linearGradient><linearGradient x1="6.25" y1="68.87093" x2="98.25" y2="68.87093" gradientUnits="userSpaceOnUse" id="color-3"><stop offset="0" stop-color="#a62828"/><stop offset="1" stop-color="#a62828" stop-opacity="0"/></linearGradient><linearGradient x1="6.25" y1="146.7876" x2="98.25" y2="146.7876" gradientUnits="userSpaceOnUse" id="color-4"><stop offset="0" stop-color="#a62828"/><stop offset="1" stop-color="#a62828" stop-opacity="0"/></linearGradient><linearGradient x1="6.25" y1="224.7876" x2="98.25" y2="224.7876" gradientUnits="userSpaceOnUse" id="color-5"><stop offset="0" stop-color="#a62828"/><stop offset="1" stop-color="#a62828" stop-opacity="0"/></linearGradient><linearGradient x1="6.25" y1="302.79916" x2="98.25" y2="302.79916" gradientUnits="userSpaceOnUse" id="color-6"><stop offset="0" stop-color="#a62828"/><stop offset="1" stop-color="#a62828" stop-opacity="0"/></linearGradient><linearGradient x1="6.25" y1="380.71582" x2="98.25" y2="380.71582" gradientUnits="userSpaceOnUse" id="color-7"><stop offset="0" stop-color="#a62828"/><stop offset="1" stop-color="#a62828" stop-opacity="0"/></linearGradient><linearGradient x1="6.25" y1="-87.12907" x2="98.25" y2="-87.12907" gradientUnits="userSpaceOnUse" id="color-8"><stop offset="0" stop-color="#1a1a1a"/><stop offset="1" stop-color="#1a1a1a" stop-opacity="0"/></linearGradient><linearGradient x1="6.25" y1="-9.12907" x2="98.25" y2="-9.12907" gradientUnits="userSpaceOnUse" id="color-9"><stop offset="0" stop-color="#a62828"/><stop offset="1" stop-color="#a62828" stop-opacity="0"/></linearGradient><linearGradient x1="475.13589" y1="-87.12907" x2="383.13589" y2="-87.12907" gradientUnits="userSpaceOnUse" id="color-10"><stop offset="0" stop-color="#1a1a1a"/><stop offset="1" stop-color="#1a1a1a" stop-opacity="0"/></linearGradient><linearGradient x1="257.5" y1="182.30001" x2="487.5" y2="182.30001" gradientUnits="userSpaceOnUse" id="color-11"><stop offset="0" stop-color="#000000"/><stop offset="1" stop-color="#8a0000"/></linearGradient><linearGradient x1="473.75" y1="68.87093" x2="381.75" y2="68.87093" gradientUnits="userSpaceOnUse" id="color-12"><stop offset="0" stop-color="#a62828"/><stop offset="1" stop-color="#a62828" stop-opacity="0"/></linearGradient><linearGradient x1="473.75" y1="146.7876" x2="381.75" y2="146.7876" gradientUnits="userSpaceOnUse" id="color-13"><stop offset="0" stop-color="#a62828"/><stop offset="1" stop-color="#a62828" stop-opacity="0"/></linearGradient><linearGradient x1="473.75" y1="224.7876" x2="381.75" y2="224.7876" gradientUnits="userSpaceOnUse" id="color-14"><stop offset="0" stop-color="#a62828"/><stop offset="1" stop-color="#a62828" stop-opacity="0"/></linearGradient><linearGradient x1="473.75" y1="302.79916" x2="381.75" y2="302.79916" gradientUnits="userSpaceOnUse" id="color-15"><stop offset="0" stop-color="#a62828"/><stop offset="1" stop-color="#a62828" stop-opacity="0"/></linearGradient><linearGradient x1="473.75" y1="380.71582" x2="381.75" y2="380.71582" gradientUnits="userSpaceOnUse" id="color-16"><stop offset="0" stop-color="#a62828"/><stop offset="1" stop-color="#a62828" stop-opacity="0"/></linearGradient><linearGradient x1="473.75" y1="-9.12907" x2="381.75" y2="-9.12907" gradientUnits="userSpaceOnUse" id="color-17"><stop offset="0" stop-color="#a62828"/><stop offset="1" stop-color="#a62828" stop-opacity="0"/></linearGradient></defs><g transform="translate(7.5,113.62907)"><g data-paper-data="{&quot;isPaintingLayer&quot;:true}" fill-rule="nonzero" stroke="none" stroke-width="0" stroke-linecap="butt" stroke-linejoin="miter" stroke-miterlimit="10" stroke-dasharray="" stroke-dashoffset="0" style="mix-blend-mode: normal"><path d="M138.19295,400.68249v-436h205v436z" fill="#000000"/><path d="M-7.5,400.30001v-436h149v436z" data-paper-data="{&quot;index&quot;:null}" fill="url(#color-1)"/><path d="M-7.5,400.30001v-436h230v436z" data-paper-data="{&quot;index&quot;:null}" fill="url(#color-2)"/><path d="M98.25,42.37093v39l-101,16.5v-39z" data-paper-data="{&quot;index&quot;:null}" fill="url(#color-3)"/><path d="M98.25,120.2876v39l-101,16.5v-39z" data-paper-data="{&quot;index&quot;:null}" fill="url(#color-4)"/><path d="M98.25,198.2876v39l-101,16.5v-39z" data-paper-data="{&quot;index&quot;:null}" fill="url(#color-5)"/><path d="M98.25,276.29916v39l-101,16.5v-39z" data-paper-data="{&quot;index&quot;:null}" fill="url(#color-6)"/><path d="M98.25,354.21582v39l-101,16.5v-39z" data-paper-data="{&quot;index&quot;:null}" fill="url(#color-7)"/><path d="M98.25,-113.62907v39l-101,16.5v-39z" data-paper-data="{&quot;index&quot;:null}" fill="url(#color-8)"/><path d="M98.25,-35.62907v39l-101,16.5v-39z" data-paper-data="{&quot;index&quot;:null}" fill="url(#color-9)"/><path d="M484.13589,-97.12907v39l-101,-16.5v-39z" data-paper-data="{&quot;index&quot;:null}" fill="url(#color-10)"/><path d="M257.5,400.30001v-436h230v436z" data-paper-data="{&quot;index&quot;:null}" fill="url(#color-11)"/><path d="M482.75,58.87093v39l-101,-16.5v-39z" data-paper-data="{&quot;index&quot;:null}" fill="url(#color-12)"/><path d="M482.75,136.7876v39l-101,-16.5v-39z" data-paper-data="{&quot;index&quot;:null}" fill="url(#color-13)"/><path d="M482.75,214.7876v39l-101,-16.5v-39z" data-paper-data="{&quot;index&quot;:null}" fill="url(#color-14)"/><path d="M482.75,292.79916v39l-101,-16.5v-39z" data-paper-data="{&quot;index&quot;:null}" fill="url(#color-15)"/><path d="M482.75,370.71582v39l-101,-16.5v-39z" data-paper-data="{&quot;index&quot;:null}" fill="url(#color-16)"/><path d="M482.75,-19.12907v39l-101,-16.5v-39z" data-paper-data="{&quot;index&quot;:null}" fill="url(#color-17)"/></g></g></svg>