<svg version="1.1" xmlns="http://www.w3.org/2000/svg" xmlns:xlink="http://www.w3.org/1999/xlink" width="490" height="370.00001" viewBox="0,0,490,370.00001"><defs><linearGradient x1="50" y1="180.94509" x2="50" y2="242.39641" gradientUnits="userSpaceOnUse" id="color-1"><stop offset="0" stop-color="#ff9400"/><stop offset="1" stop-color="#ff0000"/></linearGradient><linearGradient x1="50" y1="119.92862" x2="50" y2="181.37993" gradientUnits="userSpaceOnUse" id="color-2"><stop offset="0" stop-color="#eaff00"/><stop offset="1" stop-color="#ff9100"/></linearGradient><linearGradient x1="50" y1="58.91213" x2="50" y2="120.36346" gradientUnits="userSpaceOnUse" id="color-3"><stop offset="0" stop-color="#25ff00"/><stop offset="1" stop-color="#eafe00"/></linearGradient><linearGradient x1="50" y1="-1.43399" x2="50" y2="60.01732" gradientUnits="userSpaceOnUse" id="color-4"><stop offset="0" stop-color="#00ffb8"/><stop offset="1" stop-color="#2aff00"/></linearGradient><linearGradient x1="50" y1="300.35974" x2="50" y2="361.81106" gradientUnits="userSpaceOnUse" id="color-5"><stop offset="0" stop-color="#ff00af"/><stop offset="1" stop-color="#d200ff"/></linearGradient><linearGradient x1="50" y1="239.34325" x2="50" y2="300.79458" gradientUnits="userSpaceOnUse" id="color-6"><stop offset="0" stop-color="#ff0a00"/><stop offset="1" stop-color="#ff00b4"/></linearGradient><linearGradient x1="-11.5" y1="181.58376" x2="103.5" y2="181.58376" gradientUnits="userSpaceOnUse" id="color-7"><stop offset="0" stop-color="#000000" stop-opacity="0"/><stop offset="1" stop-color="#000000"/></linearGradient><linearGradient x1="431" y1="180.9451" x2="431" y2="242.39641" gradientUnits="userSpaceOnUse" id="color-8"><stop offset="0" stop-color="#ff9400"/><stop offset="1" stop-color="#ff0000"/></linearGradient><linearGradient x1="431" y1="119.92861" x2="431" y2="181.37994" gradientUnits="userSpaceOnUse" id="color-9"><stop offset="0" stop-color="#eaff00"/><stop offset="1" stop-color="#ff9100"/></linearGradient><linearGradient x1="431" y1="58.91213" x2="431" y2="120.36345" gradientUnits="userSpaceOnUse" id="color-10"><stop offset="0" stop-color="#25ff00"/><stop offset="1" stop-color="#eafe00"/></linearGradient><linearGradient x1="431" y1="-1.43399" x2="431" y2="60.01732" gradientUnits="userSpaceOnUse" id="color-11"><stop offset="0" stop-color="#00ffb8"/><stop offset="1" stop-color="#2aff00"/></linearGradient><linearGradient x1="431" y1="300.35974" x2="431" y2="361.81105" gradientUnits="userSpaceOnUse" id="color-12"><stop offset="0" stop-color="#ff00af"/><stop offset="1" stop-color="#d200ff"/></linearGradient><linearGradient x1="431" y1="239.34325" x2="431" y2="300.79456" gradientUnits="userSpaceOnUse" id="color-13"><stop offset="0" stop-color="#ff0a00"/><stop offset="1" stop-color="#ff00b4"/></linearGradient><linearGradient x1="492.5" y1="181.58376" x2="377.5" y2="181.58376" gradientUnits="userSpaceOnUse" id="color-14"><stop offset="0" stop-color="#000000" stop-opacity="0"/><stop offset="1" stop-color="#000000"/></linearGradient></defs><g transform="translate(4.5,3.41625)"><g data-paper-data="{&quot;isPaintingLayer&quot;:true}" fill-rule="nonzero" stroke="none" stroke-width="0" stroke-linecap="butt" stroke-linejoin="miter" stroke-miterlimit="10" stroke-dasharray="" stroke-dashoffset="0" style="mix-blend-mode: normal"><path d="M-3.5,242.39641v-61.45133h107v61.45133z" data-paper-data="{&quot;index&quot;:null}" fill="url(#color-1)"/><path d="M-3.5,181.37993v-61.45133h107v61.45133z" data-paper-data="{&quot;index&quot;:null}" fill="url(#color-2)"/><path d="M-3.5,120.36346v-61.45133h107v61.45133z" data-paper-data="{&quot;index&quot;:null}" fill="url(#color-3)"/><path d="M-3.5,60.01732v-61.45133h107v61.45133z" data-paper-data="{&quot;index&quot;:null}" fill="url(#color-4)"/><path d="M-3.5,361.81106v-61.45132h107v61.45132z" data-paper-data="{&quot;index&quot;:null}" fill="url(#color-5)"/><path d="M-3.5,300.79458v-61.45132h107v61.45132z" data-paper-data="{&quot;index&quot;:null}" fill="url(#color-6)"/><path d="M-2.5,363.58377l-2,-367h108v370z" fill="url(#color-7)"/><path d="M377.5,242.39641v-61.45132h107v61.45133z" data-paper-data="{&quot;index&quot;:null}" fill="url(#color-8)"/><path d="M377.5,181.37994v-61.45133h107v61.45133z" data-paper-data="{&quot;index&quot;:null}" fill="url(#color-9)"/><path d="M377.5,120.36345v-61.45132h107v61.45132z" data-paper-data="{&quot;index&quot;:null}" fill="url(#color-10)"/><path d="M377.5,60.01732v-61.45132h107v61.45133z" data-paper-data="{&quot;index&quot;:null}" fill="url(#color-11)"/><path d="M377.5,361.81105v-61.45132h107v61.45132z" data-paper-data="{&quot;index&quot;:null}" fill="url(#color-12)"/><path d="M377.5,300.79456v-61.45132h107v61.45132z" data-paper-data="{&quot;index&quot;:null}" fill="url(#color-13)"/><path d="M377.5,366.58376v-370h108l-2,367z" data-paper-data="{&quot;index&quot;:null}" fill="url(#color-14)"/></g></g></svg>