<svg version="1.1" xmlns="http://www.w3.org/2000/svg" xmlns:xlink="http://www.w3.org/1999/xlink" width="38.83334" height="69.10745" viewBox="0,0,38.83334,69.10745"><g transform="translate(-205.66667,-145.22588)"><g data-paper-data="{&quot;isPaintingLayer&quot;:true}" fill-rule="nonzero" stroke-linecap="butt" stroke-linejoin="miter" stroke-miterlimit="10" stroke-dasharray="" stroke-dashoffset="0" style="mix-blend-mode: normal"><path d="M243.65966,209.418c-1.03827,0.1093 -2.59241,0.41533 -3.65964,0.41533c-16.47649,0 -29.83334,-13.35684 -29.83334,-29.83334c0,-14.94969 11.4961,-27.58111 25.84144,-29.7474" fill="none" stroke="#000000" stroke-width="9"/><path d="M236.11729,150.48398c0.16709,1.32468 1.00204,2.53309 2.61104,3.18385c1.87909,0.76001 4.74985,0.21339 4.74985,0.21339c0,0 -2.62988,0.34104 -5.37873,0.66622c-2.50453,0.29628 -5.10782,1.15082 -5.91073,1.15082c-3.43206,0 -1.78571,-1.68419 -1.78571,-4.64286c0,-2.09053 1.06489,-3.8485 3.37968,-4.85542c0.96126,-0.41815 2.22847,-0.45125 3.69175,-0.64458c1.46328,-0.19333 3.82393,-0.32953 3.82393,-0.32953c0,0 -2.05609,0.03282 -3.57218,1.31092c-1.15524,0.9739 -1.8267,2.22044 -1.60889,3.94719z" fill="#000000" stroke="none" stroke-width="0"/></g></g></svg>