<svg version="1.1" xmlns="http://www.w3.org/2000/svg" xmlns:xlink="http://www.w3.org/1999/xlink" width="151.03447" height="148.44827" viewBox="0,0,151.03447,148.44827"><defs><linearGradient x1="508.23693" y1="-367.7458" x2="508.23693" y2="625.46128" gradientUnits="userSpaceOnUse" id="color-1"><stop offset="0" stop-color="#000000"/><stop offset="1" stop-color="#000000" stop-opacity="0"/></linearGradient></defs><g transform="translate(-298.20877,-2.16301)"><g data-paper-data="{&quot;isPaintingLayer&quot;:true}" fill-rule="nonzero" stroke-linejoin="miter" stroke-miterlimit="10" stroke-dasharray="" stroke-dashoffset="0" style="mix-blend-mode: normal"><path d="M323.59979,91.60814c-4.5894,-0.00235 -9.00797,-4.08615 -9.00797,-9.38148c0,-7.56402 0,-25.3002 0,-29.4593c0,-3.65206 5.23323,-8.90726 10.45597,-8.92657c12.2312,-0.04524 73.32149,-0.23166 94.54776,-0.31018c5.85607,-0.02166 9.47487,3.99864 9.45356,9.2386c-0.03013,7.41163 -0.07009,25.51236 -0.08731,29.74913c-0.01603,3.94273 -3.70256,9.13597 -10.81283,9.13232c0,0 -83.22085,-0.03672 -94.54918,-0.04252z" fill="url(#color-1)" stroke="#1b1b1b" stroke-width="0" stroke-linecap="butt"/><path d="M323.52986,67.37302c0,-8.58765 6.96167,-15.54932 15.54932,-15.54932c8.58765,0 15.54933,6.96167 15.54933,15.54932c0,8.58765 -6.96168,15.54933 -15.54933,15.54933c-8.58765,0 -15.54932,-6.96168 -15.54932,-15.54933z" fill="#f3d944" stroke="#000000" stroke-width="0" stroke-linecap="butt"/><path d="M328.8628,66.51218" fill="none" stroke="#ffffff" stroke-width="4.5" stroke-linecap="round"/><text transform="translate(360.57789,65.78048) scale(0.23178,0.23178)" font-size="40" xml:space="preserve" fill="#ffffff" fill-rule="nonzero" stroke="#ffffff" stroke-width="1" stroke-linecap="butt" stroke-linejoin="miter" stroke-miterlimit="10" stroke-dasharray="" stroke-dashoffset="0" font-family="Sans Serif" font-weight="normal" text-anchor="start" style="mix-blend-mode: normal"><tspan x="0" dy="0">NEW WORLD</tspan><tspan x="0" dy="46.15px">  RECORD!!!</tspan></text><path d="M298.20877,150.61128v-148.44827h151.03447v148.44827z" fill="none" stroke="none" stroke-width="NaN" stroke-linecap="butt"/><g fill="#ffffff" stroke="#ffffff" stroke-width="1" stroke-linecap="butt"><path d="M342.33548,67.02799c0,0 0.92511,-1.04175 1.43326,-1.85272c0.50815,-0.81097 1.1007,-2.19133 1.1007,-2.19133c0,0 0.73186,1.40408 1.14949,2.17572c0.49968,0.92324 2.00288,2.99458 2.00288,2.99458z" data-paper-data="{&quot;index&quot;:null}"/><path d="M345.03868,63.85051c-0.40735,-0.00415 -0.73422,-0.33774 -0.73007,-0.74509c0.00415,-0.40735 0.33774,-0.73422 0.74509,-0.73007c0.40735,0.00415 0.73422,0.33774 0.73007,0.74509c-0.00415,0.40735 -0.33774,0.73422 -0.7451,0.73007z" data-paper-data="{&quot;index&quot;:null}"/><path d="M329.81109,67.96879c0,0 1.54507,-2.04028 2.06344,-2.95316c0.43325,-0.76298 1.19355,-2.15186 1.19355,-2.15186c0,0 0.56432,1.39214 1.05585,2.21329c0.49153,0.82115 1.39524,1.88152 1.39524,1.88152z"/><path d="M342.06932,67.56157c0,0 1.25039,-1.39374 1.69285,-2.11889c0.16061,-0.26322 0.39379,-0.59603 0.56901,-0.9097c0.23243,-0.41608 0.38848,-0.78536 0.38848,-0.78536l0.50868,0.00518c0,0 -0.53596,1.21544 -1.03836,1.91148c-0.50239,0.69605 -1.66284,1.90194 -1.66284,1.90194z"/><path d="M330.2133,67.81391c0,0 1.08342,-1.6498 1.52588,-2.37495c0.37365,-0.61237 0.95748,-1.69506 0.95748,-1.69506l0.55955,0.0057c0,0 -0.68879,1.2547 -1.08922,1.91097c-0.42579,0.69784 -1.49587,2.158 -1.49587,2.158z"/><path d="M329.81586,72.49656l-1.75665,-7.34363c0,0 2.56788,2.7968 4.86883,2.18626c0.57434,-0.1524 1.13901,-0.36228 1.68374,-0.64807c0.77941,-0.40893 1.51796,-0.9733 2.1855,-1.74713c0.35393,-0.41028 0.6744,-0.85753 0.95522,-1.29562c0.81164,-1.26619 1.29208,-2.45594 1.29208,-2.45594c0,0 1.09746,2.86314 2.44678,4.287c1.34933,1.42387 1.75329,1.80711 3.53415,1.76379c2.25065,-0.05476 4.9588,-1.96875 4.9588,-1.96875l-1.75426,7.40962c0,0 -6.42343,-0.73823 -9.56182,-0.77019c-2.99275,-0.03048 -8.85237,0.58268 -8.85237,0.58268z"/><path d="M327.05247,64.09977c0.00415,-0.40735 0.33774,-0.73422 0.74509,-0.73007c0.40735,0.00415 0.73422,0.33774 0.73007,0.7451c-0.00415,0.40735 -0.33774,0.73422 -0.74509,0.73007c-0.40735,-0.00415 -0.73422,-0.33774 -0.73007,-0.7451z"/><path d="M344.20687,63.10438c0.00415,-0.40735 0.33774,-0.73422 0.74509,-0.73007c0.40735,0.00415 0.73422,0.33774 0.73007,0.74509c-0.00415,0.40735 -0.33774,0.73422 -0.74509,0.73007c-0.40735,-0.00415 -0.73422,-0.33774 -0.73007,-0.74509z"/><path d="M349.58748,64.27838c0.00415,-0.40735 0.33774,-0.73422 0.74509,-0.73007c0.40735,0.00415 0.73422,0.33774 0.73007,0.74509c-0.00415,0.40735 -0.33774,0.73422 -0.74509,0.73007c-0.40735,-0.00415 -0.73422,-0.33774 -0.73007,-0.74509z"/><path d="M329.88942,73.56072c0.00314,-0.30838 0.01122,-1.10214 0.01122,-1.10214c0,0 5.81445,-0.61362 8.79085,-0.58331c3.13121,0.03189 9.55551,0.77013 9.55551,0.77013c0,0 -0.00808,0.79376 -0.01122,1.10214c-0.00227,0.22303 -0.25247,0.57399 -0.68835,0.56955c-1.6016,-0.01631 -5.60922,-0.72995 -9.41247,-0.76868c-3.60282,-0.03668 -7.03072,0.60123 -7.75969,0.59381c-0.28144,-0.00287 -0.48812,-0.35848 -0.48585,-0.58151z"/><path d="M328.33373,65.67082l0.7232,0.60073l1.60352,5.70172l-0.68697,0.01844z"/><path d="M336.83282,65.372c0.9324,-0.87165 1.43543,-2.18953 1.60688,-2.5152c0.38023,-0.72225 0.59419,-1.33129 0.59419,-1.33129l0.23394,0.6047c0,0 -0.21316,0.55009 -0.5725,1.15679c-0.33807,0.57079 -0.81429,1.19161 -1.09319,1.45438c-1.62562,1.53155 -1.17223,1.00729 -0.76931,0.63062z"/><path d="M339.0777,59.71995c0.54782,0.00558 0.98741,0.4542 0.98182,1.00202c-0.00558,0.54782 -0.45421,0.9874 -1.00203,0.98183c-0.54782,-0.00558 -0.95326,-0.38104 -0.94768,-0.92887c0,0 0.05516,-0.48775 0.26799,-0.71972c0.21283,-0.23198 0.4496,-0.33781 0.6999,-0.33526z"/><path d="M332.15117,62.98162c0.00415,-0.40735 0.33775,-0.73423 0.7451,-0.73007c0.40735,0.00415 0.73422,0.33774 0.73007,0.7451c-0.00415,0.40735 -0.33774,0.73422 -0.74509,0.73007c-0.40735,-0.00415 -0.73423,-0.33775 -0.73008,-0.7451z"/><path d="M344.30861,63.10542c0.00415,-0.40735 0.33774,-0.73422 0.74509,-0.73007c0.40735,0.00415 0.73422,0.33774 0.73007,0.74509c-0.00415,0.40735 -0.33774,0.73422 -0.7451,0.73007c-0.40735,-0.00415 -0.73422,-0.33774 -0.73007,-0.74509z"/></g></g></g></svg>