<svg version="1.1" xmlns="http://www.w3.org/2000/svg" xmlns:xlink="http://www.w3.org/1999/xlink" width="11.54883" height="271.88693" viewBox="0,0,11.54883,271.88693"><defs><linearGradient x1="469.40303" y1="91.78621" x2="-41.3467" y2="91.78621" gradientUnits="userSpaceOnUse" id="color-1"><stop offset="0" stop-color="#070707"/><stop offset="1" stop-color="#070707" stop-opacity="0"/></linearGradient></defs><g transform="translate(-234.22559,-44.05654)"><g data-paper-data="{&quot;isPaintingLayer&quot;:true}" fill="url(#color-1)" fill-rule="nonzero" stroke="#1b1b1b" stroke-width="0" stroke-linecap="butt" stroke-linejoin="miter" stroke-miterlimit="10" stroke-dasharray="" stroke-dashoffset="0" style="mix-blend-mode: normal"><path d="M234.22559,310.42353c0.00268,-5.14696 0.00675,-80.40569 0.01069,-144.07971c0.00486,-78.57557 0.00954,-114.55674 0.01119,-117.72559c0.00121,-2.3241 2.10127,-4.56169 4.82435,-4.56169c3.88975,0 -0.18617,0 1.95262,0c1.87804,0 4.5805,2.65014 4.59043,5.29496c0.02326,6.19395 0.11912,251.05547 0.1595,261.80458c0.01114,2.96555 -2.05627,4.79813 -4.75088,4.78734c-3.81138,-0.01526 0.07707,-0.0355 -2.10166,-0.04422c-2.02752,-0.00812 -4.69811,-1.875 -4.69624,-5.47568z"/></g></g></svg>