<svg version="1.1" xmlns="http://www.w3.org/2000/svg" xmlns:xlink="http://www.w3.org/1999/xlink" width="12.97154" height="27.85201" viewBox="0,0,12.97154,27.85201"><defs><linearGradient x1="414.22426" y1="127.61453" x2="414.22426" y2="83.66384" gradientUnits="userSpaceOnUse" id="color-1"><stop offset="0" stop-color="#1eff00"/><stop offset="1" stop-color="#1eff00" stop-opacity="0"/></linearGradient><radialGradient cx="395.25185" cy="127.49236" r="44.13465" gradientUnits="userSpaceOnUse" id="color-2"><stop offset="0" stop-color="#1eff00"/><stop offset="1" stop-color="#1eff00" stop-opacity="0"/></radialGradient><radialGradient cx="395.2975" cy="127.8561" r="44.13465" gradientUnits="userSpaceOnUse" id="color-3"><stop offset="0" stop-color="#1eff00"/><stop offset="1" stop-color="#1eff00" stop-opacity="0"/></radialGradient><linearGradient x1="414.24555" y1="127.55181" x2="414.24555" y2="171.50249" gradientUnits="userSpaceOnUse" id="color-4"><stop offset="0" stop-color="#1eff00"/><stop offset="1" stop-color="#1eff00" stop-opacity="0"/></linearGradient><radialGradient cx="433.27809" cy="127.49236" r="44.13465" gradientUnits="userSpaceOnUse" id="color-5"><stop offset="0" stop-color="#1eff00"/><stop offset="1" stop-color="#1eff00" stop-opacity="0"/></radialGradient><radialGradient cx="433.23244" cy="127.8561" r="44.13465" gradientUnits="userSpaceOnUse" id="color-6"><stop offset="0" stop-color="#1eff00"/><stop offset="1" stop-color="#1eff00" stop-opacity="0"/></radialGradient><radialGradient cx="238.49181" cy="175.33402" r="9.23469" gradientUnits="userSpaceOnUse" id="color-7"><stop offset="0" stop-color="#232323"/><stop offset="1" stop-color="#232323" stop-opacity="0"/></radialGradient><radialGradient cx="238.4918" cy="182.47687" r="9.23469" gradientUnits="userSpaceOnUse" id="color-8"><stop offset="0" stop-color="#232323"/><stop offset="1" stop-color="#232323" stop-opacity="0"/></radialGradient><radialGradient cx="237.51513" cy="178.84716" r="10.1093" gradientUnits="userSpaceOnUse" id="color-9"><stop offset="0" stop-color="#232323"/><stop offset="1" stop-color="#232323" stop-opacity="0"/></radialGradient><radialGradient cx="239.00199" cy="187.98708" r="9.23469" gradientUnits="userSpaceOnUse" id="color-10"><stop offset="0" stop-color="#232323"/><stop offset="1" stop-color="#232323" stop-opacity="0"/></radialGradient><radialGradient cx="237.51513" cy="184.35736" r="10.1093" gradientUnits="userSpaceOnUse" id="color-11"><stop offset="0" stop-color="#232323"/><stop offset="1" stop-color="#232323" stop-opacity="0"/></radialGradient></defs><g transform="translate(-235.26514,-166.09933)"><g data-paper-data="{&quot;isPaintingLayer&quot;:true}" fill-rule="nonzero" stroke-linejoin="miter" stroke-miterlimit="10" stroke-dasharray="" stroke-dashoffset="0" style="mix-blend-mode: normal"><path d="" data-paper-data="{&quot;index&quot;:null}" fill="url(#color-1)" stroke="none" stroke-width="0" stroke-linecap="butt"/><path d="" fill="url(#color-2)" stroke="none" stroke-width="0" stroke-linecap="butt"/><path d="" fill="#000000" stroke="#000000" stroke-width="5" stroke-linecap="butt"/><path d="" fill="url(#color-3)" stroke="none" stroke-width="0" stroke-linecap="butt"/><path d="" fill="#000000" stroke="#000000" stroke-width="5" stroke-linecap="butt"/><path d="" fill="#000000" stroke="none" stroke-width="0" stroke-linecap="butt"/><path d="" fill="url(#color-4)" stroke="none" stroke-width="0" stroke-linecap="butt"/><path d="" data-paper-data="{&quot;index&quot;:null}" fill="url(#color-5)" stroke="none" stroke-width="0" stroke-linecap="butt"/><path d="" data-paper-data="{&quot;index&quot;:null}" fill="#000000" stroke="#000000" stroke-width="5" stroke-linecap="butt"/><path d="" data-paper-data="{&quot;index&quot;:null}" fill="url(#color-6)" stroke="none" stroke-width="0" stroke-linecap="butt"/><path d="" data-paper-data="{&quot;index&quot;:null}" fill="#000000" stroke="#000000" stroke-width="5" stroke-linecap="butt"/><path d="" fill="#000000" stroke="#000000" stroke-width="4.75" stroke-linecap="butt"/><path d="M237.31834,174.82381c0,-4.22924 -0.86338,-5.91301 1.12258,-6.8875c0.40898,-0.20068 -0.82005,-1.83698 0.05089,-1.83698c5.10018,0 9.23469,4.13451 9.23469,9.23469c0,5.10018 -4.13451,9.23469 -9.23469,9.23469c-5.10018,0 -1.17347,-4.64471 -1.17347,-9.74489z" fill="url(#color-7)" stroke="none" stroke-width="0" stroke-linecap="butt"/><path d="M237.31833,181.96667c0,-4.22924 -0.86339,-5.91302 1.12257,-6.88751c0.40897,-0.20068 -0.82005,-1.83698 0.05089,-1.83698c5.10018,0 9.23469,4.13451 9.23469,9.23469c0,5.10018 -4.13451,9.23469 -9.23469,9.23469c-5.10018,0 -1.17347,-4.64472 -1.17347,-9.7449z" fill="url(#color-8)" stroke="none" stroke-width="0" stroke-linecap="butt"/><path d="M236.23053,178.28863c0,-4.62979 -0.94516,-6.47303 1.22889,-7.53982c0.44771,-0.21968 -0.89772,-2.01096 0.05571,-2.01096c5.58322,0 10.1093,4.52609 10.1093,10.10931c0,5.58321 -4.52609,10.10931 -10.1093,10.10931c-0.26276,0 1.12903,-0.01127 0.90856,-0.03331c-4.46404,-0.44638 -2.19316,-5.31406 -2.19316,-10.63452z" fill="url(#color-9)" stroke="none" stroke-width="0" stroke-linecap="butt"/><path d="M237.82853,187.47687c0,-4.22924 -0.86339,-5.91302 1.12257,-6.88751c0.40897,-0.20068 -0.82005,-1.83698 0.05089,-1.83698c5.10018,0 9.23469,4.13451 9.23469,9.23469c0,2.37705 -2.58268,3.90612 -4.7958,4.64338c-2.53533,0.84459 -4.74502,0.71376 -4.74502,0.71376c0,0 -0.86734,-0.76717 -0.86734,-5.86734z" fill="url(#color-10)" stroke="none" stroke-width="0" stroke-linecap="butt"/><path d="M236.23053,183.79884c0,-4.62979 -0.94516,-6.47304 1.22889,-7.53982c0.44771,-0.21968 -0.89772,-2.01096 0.05571,-2.01096c5.58322,0 10.1093,4.52609 10.1093,10.1093c0,2.48363 -1.04472,6.12493 -2.79059,7.70106c-2.17885,1.96702 -5.16531,1.57085 -5.2877,1.55861c-4.46404,-0.44638 -3.31562,-4.49773 -3.31562,-9.81819z" fill="url(#color-11)" stroke="none" stroke-width="0" stroke-linecap="butt"/><path d="M239.76514,170.75853v18.69281" fill="none" stroke="#efefef" stroke-width="9" stroke-linecap="round"/></g></g></svg>