<svg version="1.1" xmlns="http://www.w3.org/2000/svg" xmlns:xlink="http://www.w3.org/1999/xlink" width="497.82034" height="603.29849" viewBox="0,0,497.82034,603.29849"><defs><linearGradient x1="222.3" y1="147.20456" x2="-7.7" y2="147.20456" gradientUnits="userSpaceOnUse" id="color-1"><stop offset="0" stop-color="#000000"/><stop offset="1" stop-color="#4e0000"/></linearGradient><linearGradient x1="6.25" y1="16.87093" x2="98.25" y2="16.87093" gradientUnits="userSpaceOnUse" id="color-2"><stop offset="0" stop-color="#741c1c"/><stop offset="1" stop-color="#741c1c" stop-opacity="0"/></linearGradient><linearGradient x1="6.25" y1="94.7876" x2="98.25" y2="94.7876" gradientUnits="userSpaceOnUse" id="color-3"><stop offset="0" stop-color="#741c1c"/><stop offset="1" stop-color="#741c1c" stop-opacity="0"/></linearGradient><linearGradient x1="6.25" y1="172.7876" x2="98.25" y2="172.7876" gradientUnits="userSpaceOnUse" id="color-4"><stop offset="0" stop-color="#741c1c"/><stop offset="1" stop-color="#741c1c" stop-opacity="0"/></linearGradient><linearGradient x1="6.25" y1="250.79916" x2="98.25" y2="250.79916" gradientUnits="userSpaceOnUse" id="color-5"><stop offset="0" stop-color="#741c1c"/><stop offset="1" stop-color="#741c1c" stop-opacity="0"/></linearGradient><linearGradient x1="6.25" y1="328.71582" x2="98.25" y2="328.71582" gradientUnits="userSpaceOnUse" id="color-6"><stop offset="0" stop-color="#741c1c"/><stop offset="1" stop-color="#741c1c" stop-opacity="0"/></linearGradient><linearGradient x1="-2.75" y1="-137.87907" x2="98.25" y2="-137.87907" gradientUnits="userSpaceOnUse" id="color-7"><stop offset="0" stop-color="#741c1c"/><stop offset="1" stop-color="#741c1c" stop-opacity="0"/></linearGradient><linearGradient x1="6.25" y1="-61.12907" x2="98.25" y2="-61.12907" gradientUnits="userSpaceOnUse" id="color-8"><stop offset="0" stop-color="#741c1c"/><stop offset="1" stop-color="#741c1c" stop-opacity="0"/></linearGradient><linearGradient x1="258.50233" y1="147.77036" x2="488.49767" y2="149.42448" gradientUnits="userSpaceOnUse" id="color-9"><stop offset="0" stop-color="#000000"/><stop offset="1" stop-color="#500000"/></linearGradient><linearGradient x1="473.75" y1="16.87093" x2="381.75" y2="16.87093" gradientUnits="userSpaceOnUse" id="color-10"><stop offset="0" stop-color="#a62828"/><stop offset="1" stop-color="#a62828" stop-opacity="0"/></linearGradient><linearGradient x1="473.75" y1="94.7876" x2="381.75" y2="94.7876" gradientUnits="userSpaceOnUse" id="color-11"><stop offset="0" stop-color="#a62828"/><stop offset="1" stop-color="#a62828" stop-opacity="0"/></linearGradient><linearGradient x1="473.75" y1="172.7876" x2="381.75" y2="172.7876" gradientUnits="userSpaceOnUse" id="color-12"><stop offset="0" stop-color="#a62828"/><stop offset="1" stop-color="#a62828" stop-opacity="0"/></linearGradient><linearGradient x1="473.75" y1="250.79916" x2="381.75" y2="250.79916" gradientUnits="userSpaceOnUse" id="color-13"><stop offset="0" stop-color="#a62828"/><stop offset="1" stop-color="#a62828" stop-opacity="0"/></linearGradient><linearGradient x1="473.75" y1="328.71582" x2="381.75" y2="328.71582" gradientUnits="userSpaceOnUse" id="color-14"><stop offset="0" stop-color="#a62828"/><stop offset="1" stop-color="#a62828" stop-opacity="0"/></linearGradient><linearGradient x1="473.75" y1="-61.12907" x2="381.75" y2="-61.12907" gradientUnits="userSpaceOnUse" id="color-15"><stop offset="0" stop-color="#a62828"/><stop offset="1" stop-color="#a62828" stop-opacity="0"/></linearGradient><linearGradient x1="383.13589" y1="-137.87907" x2="484.13589" y2="-137.87907" gradientUnits="userSpaceOnUse" id="color-16"><stop offset="0" stop-color="#a62828" stop-opacity="0"/><stop offset="1" stop-color="#a62828"/></linearGradient><linearGradient x1="6.25" y1="406.57296" x2="98.25" y2="406.57296" gradientUnits="userSpaceOnUse" id="color-17"><stop offset="0" stop-color="#741c1c"/><stop offset="1" stop-color="#741c1c" stop-opacity="0"/></linearGradient><linearGradient x1="473.75" y1="406.57296" x2="381.75" y2="406.57296" gradientUnits="userSpaceOnUse" id="color-18"><stop offset="0" stop-color="#a62828"/><stop offset="1" stop-color="#a62828" stop-opacity="0"/></linearGradient></defs><g transform="translate(7.7,165.62907)"><g data-paper-data="{&quot;isPaintingLayer&quot;:true}" fill-rule="nonzero" stroke="none" stroke-width="0" stroke-linecap="butt" stroke-linejoin="miter" stroke-miterlimit="10" stroke-dasharray="" stroke-dashoffset="0" style="mix-blend-mode: normal"><path d="M138.19295,435.92803v-576.29359h205v576.29359z" fill="#000000"/><path d="M-7.7,437.15715v-579.90519h230v579.90519z" data-paper-data="{&quot;index&quot;:null}" fill="url(#color-1)"/><path d="M98.25,-9.62907v39l-101,16.5v-39z" data-paper-data="{&quot;index&quot;:null}" fill="url(#color-2)"/><path d="M98.25,68.2876v39l-101,16.5v-39z" data-paper-data="{&quot;index&quot;:null}" fill="url(#color-3)"/><path d="M98.25,146.2876v39l-101,16.5v-39z" data-paper-data="{&quot;index&quot;:null}" fill="url(#color-4)"/><path d="M98.25,224.29916v39l-101,16.5v-39z" data-paper-data="{&quot;index&quot;:null}" fill="url(#color-5)"/><path d="M98.25,302.21582v39l-101,16.5v-39z" data-paper-data="{&quot;index&quot;:null}" fill="url(#color-6)"/><path d="M98.25,-165.62907v39l-101,16.5v-39z" data-paper-data="{&quot;index&quot;:null}" fill="url(#color-7)"/><path d="M98.25,-87.62907v39l-101,16.5v-39z" data-paper-data="{&quot;index&quot;:null}" fill="url(#color-8)"/><path d="M256.87966,436.0153l3.24534,-576.48991l229.99534,1.65412l-3.24534,576.48991z" data-paper-data="{&quot;index&quot;:null}" fill="url(#color-9)"/><path d="M482.75,6.87093v39l-101,-16.5v-39z" data-paper-data="{&quot;index&quot;:null}" fill="url(#color-10)"/><path d="M482.75,84.7876v39l-101,-16.5v-39z" data-paper-data="{&quot;index&quot;:null}" fill="url(#color-11)"/><path d="M482.75,162.7876v39l-101,-16.5v-39z" data-paper-data="{&quot;index&quot;:null}" fill="url(#color-12)"/><path d="M482.75,240.79916v39l-101,-16.5v-39z" data-paper-data="{&quot;index&quot;:null}" fill="url(#color-13)"/><path d="M482.75,318.71582v39l-101,-16.5v-39z" data-paper-data="{&quot;index&quot;:null}" fill="url(#color-14)"/><path d="M482.75,-71.12907v39l-101,-16.5v-39z" data-paper-data="{&quot;index&quot;:null}" fill="url(#color-15)"/><path d="M484.13589,-149.12907v39l-101,-16.5v-39z" data-paper-data="{&quot;index&quot;:null}" fill="url(#color-16)"/><path d="M98.25,380.07296v39l-101,16.5v-39z" data-paper-data="{&quot;index&quot;:null}" fill="url(#color-17)"/><path d="M482.75,396.57296v39l-101,-16.5v-39z" data-paper-data="{&quot;index&quot;:null}" fill="url(#color-18)"/></g></g></svg>