<svg version="1.1" xmlns="http://www.w3.org/2000/svg" xmlns:xlink="http://www.w3.org/1999/xlink" width="151.03447" height="148.44827" viewBox="0,0,151.03447,148.44827"><defs><linearGradient x1="508.23693" y1="-367.7458" x2="508.23693" y2="625.46128" gradientUnits="userSpaceOnUse" id="color-1"><stop offset="0" stop-color="#000000"/><stop offset="1" stop-color="#000000" stop-opacity="0"/></linearGradient></defs><g transform="translate(-298.20877,-2.16301)"><g data-paper-data="{&quot;isPaintingLayer&quot;:true}" fill-rule="nonzero" stroke-linejoin="miter" stroke-miterlimit="10" stroke-dasharray="" stroke-dashoffset="0" style="mix-blend-mode: normal"><path d="M323.59979,91.60814c-4.5894,-0.00235 -9.00797,-4.08615 -9.00797,-9.38148c0,-7.56402 0,-25.3002 0,-29.4593c0,-3.65206 5.23323,-8.90726 10.45597,-8.92657c12.2312,-0.04524 73.32149,-0.23166 94.54776,-0.31018c5.85607,-0.02166 9.47487,3.99864 9.45356,9.2386c-0.03013,7.41163 -0.07009,25.51236 -0.08731,29.74913c-0.01603,3.94273 -3.70256,9.13597 -10.81283,9.13232c0,0 -83.22085,-0.03672 -94.54918,-0.04252z" fill="url(#color-1)" stroke="#1b1b1b" stroke-width="0" stroke-linecap="butt"/><path d="M323.52986,67.37302c0,-8.58765 6.96167,-15.54932 15.54932,-15.54932c8.58765,0 15.54933,6.96167 15.54933,15.54932c0,8.58765 -6.96168,15.54933 -15.54933,15.54933c-8.58765,0 -15.54932,-6.96168 -15.54932,-15.54933z" fill="#ef4343" stroke="#000000" stroke-width="0" stroke-linecap="butt"/><path d="M345.29894,61.0527l-12.3713,14.02609" fill="none" stroke="#ffffff" stroke-width="4.5" stroke-linecap="round"/><text transform="translate(357.38742,66.04598) scale(0.25491,0.25491)" font-size="40" xml:space="preserve" fill="#ffffff" fill-rule="nonzero" stroke="#ffffff" stroke-width="1" stroke-linecap="butt" stroke-linejoin="miter" stroke-miterlimit="10" stroke-dasharray="" stroke-dashoffset="0" font-family="Sans Serif" font-weight="normal" text-anchor="start" style="mix-blend-mode: normal"><tspan x="0" dy="0">This key is </tspan><tspan x="0" dy="48px">already used</tspan></text><path d="M298.20877,150.61128v-148.44827h151.03447v148.44827z" fill="none" stroke="none" stroke-width="NaN" stroke-linecap="butt"/><path d="M331.71212,61.17559l13.82353,13.52941" fill="none" stroke="#ffffff" stroke-width="4.5" stroke-linecap="round"/></g></g></svg>