<svg version="1.1" xmlns="http://www.w3.org/2000/svg" xmlns:xlink="http://www.w3.org/1999/xlink" width="80.5" height="40" viewBox="0,0,80.5,40"><defs><linearGradient x1="240" y1="161" x2="240" y2="199" gradientUnits="userSpaceOnUse" id="color-1"><stop offset="0" stop-color="#6cef00"/><stop offset="1" stop-color="#5ab900"/></linearGradient></defs><g transform="translate(-199.75,-160)"><g data-paper-data="{&quot;isPaintingLayer&quot;:true}" fill-rule="nonzero" stroke-width="2" stroke-linecap="butt" stroke-linejoin="miter" stroke-miterlimit="10" stroke-dasharray="" stroke-dashoffset="0" style="mix-blend-mode: normal"><path d="M200.75,191c0,-7.78817 0,-19.04008 0,-23.2c0,-3.09052 3.982,-6.8 7.95,-6.8c9.15459,0 46.44514,0 62.8,0c4.76272,0 7.75,3.51907 7.75,8.2c0,7.16052 0,17.03982 0,21.2c0,3.7209 -2.98582,8.6 -7.75,8.6c-16.54126,0 -54.52035,0 -63.4,0c-3.62054,0 -7.35,-3.39434 -7.35,-8z" fill="url(#color-1)" stroke="#000000"/><text transform="translate(220.7,178.34887) scale(0.34537,0.34537)" font-size="40" xml:space="preserve" fill="#2d2d2d" fill-rule="nonzero" stroke="#2d2d2d" stroke-width="2" stroke-linecap="butt" stroke-linejoin="miter" stroke-miterlimit="10" stroke-dasharray="" stroke-dashoffset="0" font-family="Sans Serif" font-weight="normal" text-anchor="start" style="mix-blend-mode: normal"><tspan x="0" dy="0">START</tspan></text><text transform="translate(210.06338,189.87356) scale(0.26522,0.26522)" font-size="40" xml:space="preserve" fill="#2d2d2d" fill-rule="nonzero" stroke="#2d2d2d" stroke-width="2" stroke-linecap="butt" stroke-linejoin="miter" stroke-miterlimit="10" stroke-dasharray="" stroke-dashoffset="0" font-family="Sans Serif" font-weight="normal" text-anchor="start" style="mix-blend-mode: normal"><tspan x="0" dy="0">RECORDING</tspan></text></g></g></svg>