<svg version="1.1" xmlns="http://www.w3.org/2000/svg" xmlns:xlink="http://www.w3.org/1999/xlink" width="496" height="372.01775" viewBox="0,0,496,372.01775"><defs><linearGradient x1="50" y1="102.30004" x2="50" y2="-1.434" gradientUnits="userSpaceOnUse" id="color-1"><stop offset="0" stop-color="#ff8b00"/><stop offset="1" stop-color="#61ff00"/></linearGradient><linearGradient x1="430" y1="365.30005" x2="430" y2="225.56601" gradientUnits="userSpaceOnUse" id="color-2"><stop offset="0" stop-color="#ff8b00"/><stop offset="1" stop-color="#61ff00"/></linearGradient><linearGradient x1="430" y1="86.566" x2="430" y2="226.30004" gradientUnits="userSpaceOnUse" id="color-3"><stop offset="0" stop-color="#00c9ff"/><stop offset="1" stop-color="#64fe00"/></linearGradient><linearGradient x1="430" y1="88.30006" x2="430" y2="-51.434" gradientUnits="userSpaceOnUse" id="color-4"><stop offset="0" stop-color="#01cafb"/><stop offset="1" stop-color="#ff00ff"/></linearGradient><linearGradient x1="-11.5" y1="181.58375" x2="103.5" y2="181.58375" gradientUnits="userSpaceOnUse" id="color-5"><stop offset="0" stop-color="#000000" stop-opacity="0"/><stop offset="1" stop-color="#000000"/></linearGradient><linearGradient x1="484.5" y1="179.58375" x2="369.5" y2="179.58375" gradientUnits="userSpaceOnUse" id="color-6"><stop offset="0" stop-color="#000000" stop-opacity="0"/><stop offset="1" stop-color="#000000"/></linearGradient><linearGradient x1="50" y1="205.30003" x2="50" y2="101.566" gradientUnits="userSpaceOnUse" id="color-7"><stop offset="0" stop-color="#ff8b00"/><stop offset="1" stop-color="#61ff00"/></linearGradient></defs><g transform="translate(11.5,5.434)"><g data-paper-data="{&quot;isPaintingLayer&quot;:true}" fill-rule="nonzero" stroke="none" stroke-width="0" stroke-linecap="butt" stroke-linejoin="miter" stroke-miterlimit="10" stroke-dasharray="" stroke-dashoffset="0" style="mix-blend-mode: normal"><path d="M103.5,-1.434v103.73404h-107v-103.73404z" data-paper-data="{&quot;index&quot;:null}" fill="url(#color-1)"/><path d="M483.5,225.56601v139.73404h-107v-139.73404z" data-paper-data="{&quot;index&quot;:null}" fill="url(#color-2)"/><path d="M376.5,226.30004v-139.73404h107v139.73404z" data-paper-data="{&quot;index&quot;:null}" fill="url(#color-3)"/><path d="M483.5,-5.434v93.73404h-107v-93.73404z" data-paper-data="{&quot;index&quot;:null}" fill="url(#color-4)"/><path d="M-11.5,366.58375l55,-19l60,-351v370z" fill="url(#color-5)"/><path d="M369.5,364.58375v-370h115v370z" data-paper-data="{&quot;index&quot;:null}" fill="url(#color-6)"/><path d="M103.5,101.566v103.73404h-107v-103.73404z" data-paper-data="{&quot;index&quot;:null}" fill="url(#color-7)"/></g></g></svg>