<svg version="1.1" xmlns="http://www.w3.org/2000/svg" xmlns:xlink="http://www.w3.org/1999/xlink" width="76.87338" height="92.6527" viewBox="0,0,76.87338,92.6527"><defs><radialGradient cx="240" cy="180" r="46.5" gradientUnits="userSpaceOnUse" id="color-1"><stop offset="0" stop-color="#1eff00"/><stop offset="1" stop-color="#1eff00" stop-opacity="0"/></radialGradient><radialGradient cx="240.0481" cy="180.38323" r="46.5" gradientUnits="userSpaceOnUse" id="color-2"><stop offset="0" stop-color="#1eff00"/><stop offset="1" stop-color="#1eff00" stop-opacity="0"/></radialGradient><linearGradient x1="255.12678" y1="181.24685" x2="255.12678" y2="223.80303" gradientUnits="userSpaceOnUse" id="color-3"><stop offset="0" stop-color="#1eff00"/><stop offset="1" stop-color="#1eff00" stop-opacity="0"/></linearGradient></defs><g transform="translate(-193.46407,-133.8473)"><g data-paper-data="{&quot;isPaintingLayer&quot;:true}" fill-rule="nonzero" stroke-width="0" stroke-linecap="butt" stroke-linejoin="miter" stroke-miterlimit="10" stroke-dasharray="" stroke-dashoffset="0" style="mix-blend-mode: normal"><path d="M193.5,180c0,-1.87885 -0.03593,-0.09198 -0.03593,-0.09198c0,0 10.98236,-0.0377 17.53327,-0.06018c8.35242,-0.02867 28.50267,-0.09784 28.50267,-0.09784c0,0 0.27282,21.87828 0.37913,30.40437c0.07719,6.19018 0.19985,16.02662 0.19985,16.02662c0,0 1.16567,0.07622 0.04253,0.15733c-0.27613,0.01995 0.70659,0.16168 -0.12151,0.16168c-25.68124,0 -46.5,-20.81876 -46.5,-46.5z" fill="url(#color-1)" stroke="none"/><path d="M210.16667,180c0,-0.13222 0.03677,-0.22923 0.03677,-0.22923l29.54656,0.1459l0.02072,29.83322c0,0 0.06752,0.08203 -0.10109,0.07922c-16.24271,-0.27057 -29.50296,-13.5219 -29.50296,-29.82911z" fill="#000000" stroke="#000000"/><path d="M240.0481,133.88323c1.87885,0 0.09198,-0.03593 0.09198,-0.03593c0,0 0.0377,10.98236 0.06018,17.53327c0.02867,8.35242 0.09784,28.50267 0.09784,28.50267c0,0 -21.87827,0.27282 -30.40437,0.37913c-6.19018,0.07719 -16.02662,0.19985 -16.02662,0.19985c0,0 -0.07622,1.16567 -0.15733,0.04253c-0.01995,-0.27613 -0.16168,0.70659 -0.16168,-0.12151c0,-25.68124 20.81876,-46.5 46.5,-46.5z" fill="url(#color-2)" stroke="none"/><path d="M240.0481,150.5499c0.13222,0 0.22922,0.03677 0.22922,0.03677l-0.14589,29.54656l-29.83322,0.02072c0,0 -0.08203,0.06752 -0.07922,-0.10109c0.27057,-16.24271 13.5219,-29.50296 29.82911,-29.50296z" fill="#000000" stroke="#000000"/><path d="M210.23973,180.79578v-2.09091h29.27273v2.09091z" fill="#000000" stroke="none"/><path d="M239.9161,223.80303v-42.55618h30.42135v42.55618z" fill="url(#color-3)" stroke="none"/></g></g></svg>