<svg version="1.1" xmlns="http://www.w3.org/2000/svg" xmlns:xlink="http://www.w3.org/1999/xlink" width="74.94781" height="48.61193" viewBox="0,0,74.94781,48.61193"><g transform="translate(-202.52609,-155.69403)"><g data-paper-data="{&quot;isPaintingLayer&quot;:true}" fill-rule="nonzero" stroke-width="0" stroke-linecap="butt" stroke-linejoin="miter" stroke-miterlimit="10" stroke-dasharray="" stroke-dashoffset="0" style="mix-blend-mode: normal"><path d="M202.52609,181.03844c0,-2.66436 2.15988,-4.82425 4.82425,-4.82425c2.66436,0 4.82425,2.15989 4.82425,4.82425c0,2.66436 -2.15989,4.82425 -4.82425,4.82425c-2.66436,0 -4.82425,-2.15988 -4.82425,-4.82425z" data-paper-data="{&quot;index&quot;:null}" fill="#ffffff" stroke="none"/><path d="M233.81062,160.86428c0,-2.66436 4.05036,-6.79309 8.82962,-4.50332c3.63677,1.74239 3.3974,3.48718 3.3974,5.00332c0,2.66436 -4.7384,4.32425 -7.40277,4.32425c-2.66436,0 -4.82425,-2.15989 -4.82425,-4.82425z" data-paper-data="{&quot;index&quot;:null}" fill="#ffffff" stroke="none"/><path d="M233.81062,199.4583c0,-2.66436 2.15988,-4.82425 4.82425,-4.82425c2.66436,0 7.27777,2.15989 7.27777,4.82425c0,1.67055 -1.10843,3.18516 -3.8234,4.38365c-3.90575,1.72415 -8.27863,-1.71928 -8.27863,-4.38365z" data-paper-data="{&quot;index&quot;:null}" fill="#ffffff" stroke="none"/><path d="M205.1575,185.27792v-8.47898l30.99214,-20.17414l9.84167,5.59025l-0.14038,36.80906l-9.11653,4.67367z" data-paper-data="{&quot;index&quot;:null}" fill="#ffffff" stroke="none"/><path d="M241.41246,192.7256v-24.80862h31.38339v24.80862z" data-paper-data="{&quot;index&quot;:null}" fill="#ffffff" stroke="none"/><path d="M270.06557,174.02135c0,-2.66436 -0.08029,-6.10434 2.58408,-6.10434c2.66436,0 4.82425,3.43998 4.82425,6.10434c0,2.66436 -2.15988,4.82425 -4.82425,4.82425c-2.66436,0 -2.58408,-2.15989 -2.58408,-4.82425z" data-paper-data="{&quot;index&quot;:null}" fill="#ffffff" stroke="none"/><path d="M270.06557,186.30127c0,-2.66436 -0.08029,-4.82425 2.58408,-4.82425c2.66436,0 4.82425,2.15989 4.82425,4.82425c0,2.66436 -2.15988,6.42437 -4.82425,6.42437c-2.66436,0 -2.58408,-3.76001 -2.58408,-6.42437z" data-paper-data="{&quot;index&quot;:null}" fill="#ffffff" stroke="none"/><path d="M270.94271,185.57031v-12.57228h6.53119v12.57228z" data-paper-data="{&quot;index&quot;:null}" fill="#ffffff" stroke="none"/><path d="M207.73182,180.93018c0,-2.27479 1.84408,-4.11886 4.11886,-4.11886c2.27479,0 4.11886,1.84408 4.11886,4.11886c0,2.27479 -1.84408,4.11886 -4.11886,4.11886c-2.27479,0 -4.11886,-1.84408 -4.11886,-4.11886z" data-paper-data="{&quot;index&quot;:null}" fill="#2d2d2d" stroke="none"/><path d="M234.44201,163.70583c0,-2.27479 1.84408,-4.11886 4.11886,-4.11886c2.27479,0 4.11887,1.71908 4.11887,4.36886c0,2.27479 -1.84408,3.86886 -4.11887,3.86886c-2.27479,0 -4.11886,-1.84408 -4.11886,-4.11886z" data-paper-data="{&quot;index&quot;:null}" fill="#2d2d2d" stroke="none"/><path d="M234.44201,196.65675c0,-2.27479 1.84408,-4.11886 4.11886,-4.11886c2.27479,0 4.11887,1.84408 4.11887,4.11886c0,2.27479 -1.84408,4.11887 -4.11887,4.11887c-2.27479,0 -4.11886,-1.84408 -4.11886,-4.11887z" data-paper-data="{&quot;index&quot;:null}" fill="#2d2d2d" stroke="none"/><path d="M209.97846,184.54978v-7.23921l26.46057,-17.22434l6.30787,4.77286l-0.11985,31.42696l-5.68878,3.99029z" data-paper-data="{&quot;index&quot;:null}" fill="#2d2d2d" stroke="none"/><path d="M240.93234,189.54233v-18.7221h28.70722v18.7221z" data-paper-data="{&quot;index&quot;:null}" fill="#2d2d2d" stroke="none"/><path d="M265.39588,174.93911c0,-2.27479 1.84408,-4.11886 4.11887,-4.11886c2.27479,0 4.11886,1.84408 4.11886,4.11886c0,2.27479 -1.84407,4.11887 -4.11886,4.11887c-2.27479,0 -4.11887,-1.84408 -4.11887,-4.11887z" data-paper-data="{&quot;index&quot;:null}" fill="#2d2d2d" stroke="none"/><path d="M265.39588,185.4235c0,-2.27479 1.84408,-4.11886 4.11887,-4.11886c2.27479,0 4.11886,1.84408 4.11886,4.11886c0,2.27479 -1.84407,4.11886 -4.11886,4.11886c-2.27479,0 -4.11887,-1.84408 -4.11887,-4.11886z" data-paper-data="{&quot;index&quot;:null}" fill="#2d2d2d" stroke="none"/><path d="M266.14477,184.79942v-10.73401h7.48884v10.73401z" data-paper-data="{&quot;index&quot;:null}" fill="#2d2d2d" stroke="none"/><text transform="translate(221.0911,184.78207) scale(0.3834,0.3834)" font-size="40" xml:space="preserve" data-paper-data="{&quot;index&quot;:null}" fill="#f9f9f9" fill-rule="nonzero" stroke="#505050" stroke-width="0" stroke-linecap="butt" stroke-linejoin="miter" stroke-miterlimit="10" stroke-dasharray="" stroke-dashoffset="0" font-family="Sans Serif" font-weight="normal" text-anchor="start" style="mix-blend-mode: normal"><tspan x="0" dy="0">BACK</tspan></text></g></g></svg>