<svg version="1.1" xmlns="http://www.w3.org/2000/svg" xmlns:xlink="http://www.w3.org/1999/xlink" width="100.37387" height="166.8676" viewBox="0,0,100.37387,166.8676"><defs><linearGradient x1="240.03092" y1="160.33578" x2="240.03092" y2="199.28244" gradientUnits="userSpaceOnUse" id="color-1"><stop offset="0" stop-color="#fff582"/><stop offset="1" stop-color="#ffe000"/></linearGradient></defs><g transform="translate(-189.81307,-96.5662)"><g data-paper-data="{&quot;isPaintingLayer&quot;:true}" fill-rule="nonzero" stroke-linecap="butt" stroke-linejoin="miter" stroke-miterlimit="10" stroke-dasharray="" stroke-dashoffset="0" style="mix-blend-mode: normal"><path d="M224.32268,175.01462c2.88356,0.09134 11.03268,0.34946 11.03268,0.34946c0,0 2.55012,-8.29466 3.39935,-11.05691c0.50895,-1.65545 1.98539,-1.58624 2.52488,0.09705c0.88252,2.75358 3.48923,10.887 3.48923,10.887c0,0 7.90739,-0.1978 10.7722,-0.29575c1.75299,-0.05993 2.61061,1.61682 1.19485,2.67374c-2.33947,1.74651 -9.12544,6.58365 -9.12544,6.58365c0,0 2.43527,7.36912 3.34576,10.12423c0.62799,1.90032 -0.80031,3.06307 -2.37392,1.90951c-2.31393,-1.69625 -8.57469,-6.28576 -8.57469,-6.28576c0,0 -5.98983,4.6069 -8.21592,6.31904c-1.52423,1.17232 -3.10218,0.46372 -2.58278,-1.26758c0.82593,-2.75303 3.20889,-10.69612 3.20889,-10.69612c0,0 -6.65867,-4.98067 -8.99951,-6.73161c-1.49761,-1.12021 -0.9551,-2.6689 0.90443,-2.61z" fill="url(#color-1)" stroke="#ffffff" stroke-width="2"/><path d="M189.81307,263.4338v-166.8676h100.37387v166.8676z" fill="none" stroke="none" stroke-width="0"/></g></g></svg>