<svg version="1.1" xmlns="http://www.w3.org/2000/svg" xmlns:xlink="http://www.w3.org/1999/xlink" width="237.5" height="285.5" viewBox="0,0,237.5,285.5"><defs><linearGradient x1="240.0001" y1="36.75001" x2="240.0001" y2="322.25003" gradientUnits="userSpaceOnUse" id="color-1"><stop offset="0" stop-color="#00b5ff"/><stop offset="1" stop-color="#ff0000"/></linearGradient></defs><g transform="translate(-121.2501,-36.75001)"><g data-paper-data="{&quot;isPaintingLayer&quot;:true}" fill-rule="nonzero" stroke-linejoin="miter" stroke-miterlimit="10" stroke-dasharray="" stroke-dashoffset="0" style="mix-blend-mode: normal"><path d="M121.25011,290.82813c0,-62.17069 0,-195.58744 0,-227c0,-12.75929 14.27109,-27.07812 28.59721,-27.07812c28.14464,0 129.79631,0 180,0c17.52511,0 28.90279,10.1997 28.90279,26.57812c0,58.06501 0,193.78754 0,228c0,15.28687 -12.02073,30.92188 -30.40279,30.92188c-51.28556,0 -152.08758,0 -179.5,0c-13.50227,0 -27.59721,-12.21585 -27.59721,-31.42188z" fill="#4e4e4e" stroke="url(#color-1)" stroke-width="0" stroke-linecap="butt"/><text transform="translate(151.65373,102.63127) scale(0.727,0.727)" font-size="40" xml:space="preserve" fill="#000000" fill-rule="nonzero" stroke="#000000" stroke-width="3" stroke-linecap="butt" stroke-linejoin="miter" stroke-miterlimit="10" stroke-dasharray="" stroke-dashoffset="0" font-family="Sans Serif" font-weight="normal" text-anchor="start" style="mix-blend-mode: normal"><tspan x="0" dy="0">SONG FAILED</tspan></text><text transform="translate(149.1083,101.59903) scale(0.727,0.727)" font-size="40" xml:space="preserve" fill="#ffa7a7" fill-rule="nonzero" stroke="#ffa7a7" stroke-width="3" stroke-linecap="butt" stroke-linejoin="miter" stroke-miterlimit="10" stroke-dasharray="" stroke-dashoffset="0" font-family="Sans Serif" font-weight="normal" text-anchor="start" style="mix-blend-mode: normal"><tspan x="0" dy="0">SONG FAILED</tspan></text><path d="M338.0231,107.5101h-190.68824" fill="none" stroke="#ffa7a7" stroke-width="3" stroke-linecap="round"/><path d="M124.11275,290.82813c0,-62.17069 -0.91244,-64.58494 -0.91244,-64.58494l232.72891,-0.5c0,0 0.91244,31.37248 0.91244,65.58494c0,15.28687 -10.11229,28.53634 -28.49435,28.53634c-51.28556,0 -152.08758,0 -179.5,0c-13.50227,0 -24.73456,-9.83031 -24.73456,-29.03634z" fill="#414141" stroke="#797979" stroke-width="0" stroke-linecap="butt"/></g></g></svg>