<svg version="1.1" xmlns="http://www.w3.org/2000/svg" xmlns:xlink="http://www.w3.org/1999/xlink" width="61" height="61" viewBox="0,0,61,61"><defs><linearGradient x1="240.02379" y1="163.30137" x2="240.02379" y2="193.24716" gradientUnits="userSpaceOnUse" id="color-1"><stop offset="0" stop-color="#e0cd00"/><stop offset="1" stop-color="#ffe000"/></linearGradient></defs><g transform="translate(-209.5,-149.5)"><g data-paper-data="{&quot;isPaintingLayer&quot;:true}" fill-rule="nonzero" stroke-linecap="butt" stroke-linejoin="miter" stroke-miterlimit="10" stroke-dasharray="" stroke-dashoffset="0" style="mix-blend-mode: normal"><path d="M227.94584,174.58782c2.21715,0.07023 8.48294,0.2687 8.48294,0.2687c0,0 1.96077,-6.3777 2.61373,-8.50157c0.39133,-1.27286 1.52655,-1.21965 1.94136,0.07462c0.67856,2.11721 2.68284,8.37093 2.68284,8.37093c0,0 6.07993,-0.15209 8.28266,-0.2274c1.34786,-0.04608 2.00728,1.24316 0.91871,2.05582c-1.7988,1.34288 -7.01648,5.06212 -7.01648,5.06212c0,0 1.87246,5.66606 2.57253,7.78444c0.48286,1.46114 -0.61535,2.35517 -1.82529,1.46821c-1.77916,-1.30423 -6.59301,-4.83307 -6.59301,-4.83307c0,0 -4.60553,3.54221 -6.31716,4.85866c-1.17197,0.90139 -2.38524,0.35655 -1.98588,-0.97463c0.63505,-2.11678 2.46729,-8.22416 2.46729,-8.22416c0,0 -5.1198,-3.8296 -6.91965,-5.17588c-1.1515,-0.86132 -0.73437,-2.0521 0.69541,-2.00681z" fill="url(#color-1)" stroke="#ffffff" stroke-width="2"/><path d="M209.5,210.5v-61h61v61z" fill="none" stroke="none" stroke-width="0"/></g></g></svg>