<svg version="1.1" xmlns="http://www.w3.org/2000/svg" xmlns:xlink="http://www.w3.org/1999/xlink" width="108.80599" height="266.83779" viewBox="0,0,108.80599,266.83779"><g transform="translate(-184.59707,-99.25)"><g data-paper-data="{&quot;isPaintingLayer&quot;:true}" fill-rule="nonzero" stroke-linejoin="miter" stroke-miterlimit="10" stroke-dasharray="" stroke-dashoffset="0" style="mix-blend-mode: normal"><path d="M186.84709,180.6806c0,-37.51293 0,-40.67799 0,-60.68709c0,-9.17037 10.97148,-18.49351 19.90299,-18.49351c12.04751,0 44.52528,0 65.5,0c11.0469,0 18.90299,10.48399 18.90299,20.49351c0,20.72233 0,20.65479 0,57.18709c0,11.82199 -7.02933,20.38053 -19.40298,20.38053c-21.82978,0 -55.56862,0 -67,0c-8.01519,0 -17.90298,-6.47902 -17.90298,-18.88053z" fill="#2d2d2d" stroke="#ffffff" stroke-width="4.5" stroke-linecap="butt"/><path d="M186.84708,344.95726c0,-37.51293 0,-82.03842 0,-102.04752c0,-9.17037 10.97148,-18.49351 19.90299,-18.49351c12.04751,0 44.52528,0 65.5,0c11.0469,0 18.90299,10.48399 18.90299,20.49351c0,20.72233 0,62.01522 0,98.54752c0,11.82199 -7.02933,20.38053 -19.40298,20.38053c-21.82978,0 -55.56862,0 -67,0c-8.01519,0 -17.90298,-6.47902 -17.90298,-18.88053z" fill="#2d2d2d" stroke="#ffffff" stroke-width="4.5" stroke-linecap="butt"/><text transform="translate(195.01819,249.37437) scale(0.33578,0.33578)" font-size="40" xml:space="preserve" fill="#ffffff" fill-rule="nonzero" stroke="#ffffff" stroke-width="2" stroke-linecap="butt" stroke-linejoin="miter" stroke-miterlimit="10" stroke-dasharray="" stroke-dashoffset="0" font-family="Sans Serif" font-weight="normal" text-anchor="start" style="mix-blend-mode: normal"><tspan x="0" dy="0">NOTE EDITOR</tspan></text><text transform="translate(198.17766,266.62868) scale(0.24391,0.24391)" font-size="40" xml:space="preserve" fill="#dadada" fill-rule="nonzero" stroke="#dadada" stroke-width="1" stroke-linecap="butt" stroke-linejoin="miter" stroke-miterlimit="10" stroke-dasharray="" stroke-dashoffset="0" font-family="Sans Serif" font-weight="normal" text-anchor="start" style="mix-blend-mode: normal"><tspan x="0" dy="0">Editing: </tspan></text><text transform="translate(210.17166,290.8193) scale(0.24391,0.24391)" font-size="40" xml:space="preserve" fill="#dadada" fill-rule="nonzero" stroke="#dadada" stroke-width="1" stroke-linecap="butt" stroke-linejoin="miter" stroke-miterlimit="10" stroke-dasharray="" stroke-dashoffset="0" font-family="Sans Serif" font-weight="normal" text-anchor="start" style="mix-blend-mode: normal"><tspan x="0" dy="0">Instrument:</tspan></text><text transform="translate(225.11049,330.96913) scale(0.24391,0.24391)" font-size="40" xml:space="preserve" fill="#dadada" fill-rule="nonzero" stroke="#dadada" stroke-width="1" stroke-linecap="butt" stroke-linejoin="miter" stroke-miterlimit="10" stroke-dasharray="" stroke-dashoffset="0" font-family="Sans Serif" font-weight="normal" text-anchor="start" style="mix-blend-mode: normal"><tspan x="0" dy="0">Pitch:</tspan></text><path d="M210.16669,292.60446h54.66667" fill="none" stroke="#dadada" stroke-width="1" stroke-linecap="round"/><path d="M249.83336,332.60446h-24" fill="none" stroke="#dadada" stroke-width="1" stroke-linecap="round"/><path d="M204.83336,348.43779v-2.33333h68.33333v2.33333z" fill="#dadada" stroke="none" stroke-width="0" stroke-linecap="butt"/><path d="M206.9667,352.23779h-2.33333v-10.29333h2.33333z" fill="#dadada" stroke="none" stroke-width="0" stroke-linecap="butt"/><path d="M273.56667,352.23779h-2.33333v-10.29333h2.33333z" fill="#dadada" stroke="none" stroke-width="0" stroke-linecap="butt"/></g></g></svg>