<svg version="1.1" xmlns="http://www.w3.org/2000/svg" xmlns:xlink="http://www.w3.org/1999/xlink" width="61" height="61" viewBox="0,0,61,61"><g transform="translate(-209.5,-149.5)"><g data-paper-data="{&quot;isPaintingLayer&quot;:true}" fill="none" fill-rule="nonzero" stroke-linecap="butt" stroke-linejoin="miter" stroke-miterlimit="10" stroke-dasharray="" stroke-dashoffset="0" style="mix-blend-mode: normal"><path d="M227.94585,174.58782c2.21715,0.07023 8.48294,0.2687 8.48294,0.2687c0,0 1.96077,-6.3777 2.61373,-8.50157c0.39133,-1.27286 1.52655,-1.21964 1.94136,0.07461c0.67856,2.1172 2.68284,8.37094 2.68284,8.37094c0,0 6.07993,-0.15208 8.28266,-0.2274c1.34787,-0.04608 2.00727,1.24316 0.9187,2.05582c-1.79881,1.34288 -7.01648,5.06212 -7.01648,5.06212c0,0 1.87246,5.66607 2.57252,7.78444c0.48287,1.46114 -0.61535,2.35517 -1.82529,1.46821c-1.77916,-1.30423 -6.59301,-4.83307 -6.59301,-4.83307c0,0 -4.60552,3.54221 -6.31716,4.85866c-1.17197,0.90139 -2.38525,0.35655 -1.98588,-0.97463c0.63504,-2.11678 2.46729,-8.22416 2.46729,-8.22416c0,0 -5.1198,-3.82961 -6.91965,-5.17589c-1.1515,-0.86132 -0.73436,-2.05209 0.69542,-2.0068z" stroke="#717171" stroke-width="2"/><path d="M209.5,210.5v-61h61v61z" stroke="none" stroke-width="0"/></g></g></svg>