<svg version="1.1" xmlns="http://www.w3.org/2000/svg" xmlns:xlink="http://www.w3.org/1999/xlink" width="12.43334" height="271.88693" viewBox="0,0,12.43334,271.88693"><defs><linearGradient x1="663.25069" y1="156.76631" x2="152.50096" y2="156.76631" gradientUnits="userSpaceOnUse" id="color-1"><stop offset="0" stop-color="#070707"/><stop offset="1" stop-color="#070707" stop-opacity="0"/></linearGradient></defs><g transform="translate(-427.45,-109.03664)"><g data-paper-data="{&quot;isPaintingLayer&quot;:true}" fill-rule="nonzero" stroke-linecap="butt" stroke-linejoin="miter" stroke-miterlimit="10" stroke-dasharray="" stroke-dashoffset="0" style="mix-blend-mode: normal"><path d="M428.07325,375.40363c0.00268,-5.14696 0.00675,-80.40569 0.01069,-144.07971c0.00486,-78.57557 0.00954,-114.55674 0.01119,-117.72559c0.00121,-2.3241 2.10127,-4.56169 4.82435,-4.56169c3.88975,0 -0.18617,0 1.95262,0c1.87804,0 4.5805,2.65014 4.59043,5.29496c0.02326,6.19395 0.11912,251.05547 0.1595,261.80458c0.01114,2.96555 -2.05627,4.79813 -4.75088,4.78734c-3.81138,-0.01526 0.07707,-0.0355 -2.10166,-0.04422c-2.02752,-0.00812 -4.69811,-1.875 -4.69624,-5.47568z" fill="url(#color-1)" stroke="#1b1b1b" stroke-width="0"/><path d="M428.2,174.06182c0,-15.43969 0,-50.10142 0,-58.52c0,-1.96375 2.20824,-3.54182 3.62671,-3.54182c0.80019,0 2.11851,0 3.41667,0c1.96812,0 3.88995,1.33807 3.88995,3.30182c0,8.31547 0,42.06135 0,58.4c0,2.72498 -1.94497,4.29818 -4.16329,4.29818c-1.23235,0 -2.83252,0 -3.55334,0c-1.30313,0 -3.21671,-1.58377 -3.21671,-3.93818z" fill="#d7d7d7" stroke="#bbbbbb" stroke-width="1.5"/></g></g></svg>