<svg version="1.1" xmlns="http://www.w3.org/2000/svg" xmlns:xlink="http://www.w3.org/1999/xlink" width="126.36376" height="87.96317" viewBox="0,0,126.36376,87.96317"><defs><linearGradient x1="414.22424" y1="127.61451" x2="414.22424" y2="83.66382" gradientUnits="userSpaceOnUse" id="color-1"><stop offset="0" stop-color="#1eff00"/><stop offset="1" stop-color="#1eff00" stop-opacity="0"/></linearGradient><radialGradient cx="395.25183" cy="127.49234" r="44.13465" gradientUnits="userSpaceOnUse" id="color-2"><stop offset="0" stop-color="#1eff00"/><stop offset="1" stop-color="#1eff00" stop-opacity="0"/></radialGradient><radialGradient cx="395.29748" cy="127.85607" r="44.13465" gradientUnits="userSpaceOnUse" id="color-3"><stop offset="0" stop-color="#1eff00"/><stop offset="1" stop-color="#1eff00" stop-opacity="0"/></radialGradient><linearGradient x1="414.24553" y1="127.55179" x2="414.24553" y2="171.50248" gradientUnits="userSpaceOnUse" id="color-4"><stop offset="0" stop-color="#1eff00"/><stop offset="1" stop-color="#1eff00" stop-opacity="0"/></linearGradient><radialGradient cx="433.27807" cy="127.49234" r="44.13465" gradientUnits="userSpaceOnUse" id="color-5"><stop offset="0" stop-color="#1eff00"/><stop offset="1" stop-color="#1eff00" stop-opacity="0"/></radialGradient><radialGradient cx="433.23242" cy="127.85607" r="44.13465" gradientUnits="userSpaceOnUse" id="color-6"><stop offset="0" stop-color="#1eff00"/><stop offset="1" stop-color="#1eff00" stop-opacity="0"/></radialGradient><linearGradient x1="392.08682" y1="127.3655" x2="435.62913" y2="127.3655" gradientUnits="userSpaceOnUse" id="color-7"><stop offset="0" stop-color="#ff0000"/><stop offset="1" stop-color="#8bfa00"/></linearGradient></defs><g transform="translate(-351.08307,-83.66382)"><g data-paper-data="{&quot;isPaintingLayer&quot;:true}" fill-rule="nonzero" stroke-linejoin="miter" stroke-miterlimit="10" stroke-dasharray="" stroke-dashoffset="0" style="mix-blend-mode: normal"><g><path d="M433.07093,83.66382v43.95069h-37.62494v-43.95069z" data-paper-data="{&quot;index&quot;:null}" fill="url(#color-1)" stroke="none" stroke-width="0" stroke-linecap="butt"/><path d="M351.11717,127.49234c0,-1.78328 -0.0341,-0.0873 -0.0341,-0.0873c0,0 10.42371,-0.03578 16.64139,-0.05712c7.92755,-0.02721 27.05281,-0.09286 27.05281,-0.09286c0,0 0.25894,20.76538 0.35984,28.85777c0.07326,5.8753 0.18968,15.21138 0.18968,15.21138c0,0 1.10638,0.07234 0.04037,0.14933c-0.26208,0.01894 0.67065,0.15346 -0.11533,0.15346c-24.3749,0 -44.13465,-19.75976 -44.13465,-44.13465z" fill="url(#color-2)" stroke="none" stroke-width="0" stroke-linecap="butt"/><path d="M366.93605,126.93944c0,-0.12549 0.0349,-0.21757 0.0349,-0.21757l28.0436,0.13848l0.01967,28.31567c0,0 0.06409,0.07786 -0.09595,0.07519c-15.41648,-0.25681 -28.00221,-12.83407 -28.00221,-28.31177z" fill="#000000" stroke="#000000" stroke-width="5" stroke-linecap="butt"/><path d="M395.29748,83.72142c1.78328,0 0.0873,-0.0341 0.0873,-0.0341c0,0 0.03578,10.42371 0.05712,16.64139c0.02721,7.92755 0.09286,26.84747 0.09286,26.84747c0,0 -44.37194,0.23878 -44.37194,0.12483c0,-24.3749 19.75976,-43.57958 44.13465,-43.57958z" fill="url(#color-3)" stroke="none" stroke-width="0" stroke-linecap="butt"/><path d="M395.29748,98.9874c0.12549,0 0.21756,0.0349 0.21756,0.0349l-0.13847,28.0436l-28.31567,0.01967c0,0 -0.07786,0.06409 -0.07519,-0.09595c0.25681,-15.41648 12.83407,-28.00221 28.31177,-28.00221z" fill="#000000" stroke="#000000" stroke-width="5" stroke-linecap="butt"/><path d="M367.00539,128.24764v-1.98455h27.78369v1.98455z" fill="#000000" stroke="none" stroke-width="0" stroke-linecap="butt"/><path d="M395.17219,171.50248v-43.95069h38.14666v43.95069z" fill="url(#color-4)" stroke="none" stroke-width="0" stroke-linecap="butt"/><path d="M433.27807,171.62699c-0.78598,0 0.14675,-0.13452 -0.11533,-0.15346c-1.06601,-0.07699 0.04038,-0.14933 0.04038,-0.14933c0,0 0.11642,-9.33608 0.18967,-15.21138c0.1009,-8.09239 0.35984,-28.85777 0.35984,-28.85777c0,0 19.12525,0.06564 27.05281,0.09286c6.21767,0.02134 16.64138,0.05712 16.64138,0.05712c0,0 -0.0341,-1.69598 -0.0341,0.0873c0,24.3749 -19.75976,44.13465 -44.13465,44.13465z" data-paper-data="{&quot;index&quot;:null}" fill="url(#color-5)" stroke="none" stroke-width="0" stroke-linecap="butt"/><path d="M433.59164,155.25122c-0.16003,0.00267 -0.09595,-0.07519 -0.09595,-0.07519l0.01967,-28.31567l28.04361,-0.13848c0,0 0.0349,0.09208 0.0349,0.21757c0,15.4777 -12.58574,28.05497 -28.00222,28.31177z" data-paper-data="{&quot;index&quot;:null}" fill="#000000" stroke="#000000" stroke-width="5" stroke-linecap="butt"/><path d="M477.36707,127.39318c0,0.11662 -0.15346,-0.09001 -0.15346,-0.09001l-44.21848,-0.05856c0,0 0.06564,-18.98836 0.09285,-26.91591c0.01881,-5.47764 0.05712,-16.64138 0.05712,-16.64138c0,0 -1.69598,0.0341 0.08731,0.0341c24.3749,0 44.13465,19.29687 44.13465,43.67177z" data-paper-data="{&quot;index&quot;:null}" fill="url(#color-6)" stroke="none" stroke-width="0" stroke-linecap="butt"/><path d="M461.54419,126.98962c0.00267,0.16003 -0.07519,0.09595 -0.07519,0.09595l-28.31567,-0.01967l-0.13847,-28.0436c0,0 0.09208,-0.0349 0.21756,-0.0349c15.4777,0 28.05498,12.58574 28.31177,28.00221z" data-paper-data="{&quot;index&quot;:null}" fill="#000000" stroke="#000000" stroke-width="5" stroke-linecap="butt"/><path d="M396.59797,155.33197v-56.43051h35.70523v56.43051z" fill="#000000" stroke="#000000" stroke-width="4.75" stroke-linecap="butt"/><path d="M395.10049,127.3655h36.89146" fill="none" stroke="url(#color-7)" stroke-width="30.5" stroke-linecap="round"/><path d="M412.13959,114.22116v27.02614" fill="none" stroke="#ffffff" stroke-width="10" stroke-linecap="round"/></g></g></g></svg>