<svg version="1.1" xmlns="http://www.w3.org/2000/svg" xmlns:xlink="http://www.w3.org/1999/xlink" width="75.85356" height="26.96317" viewBox="0,0,75.85356,26.96317"><defs><radialGradient cx="214.3928" cy="179.25578" r="13.5285" gradientUnits="userSpaceOnUse" id="color-1"><stop offset="0" stop-color="#a721ff"/><stop offset="1" stop-color="#a721ff" stop-opacity="0"/></radialGradient><radialGradient cx="214.40679" cy="179.36727" r="13.52851" gradientUnits="userSpaceOnUse" id="color-2"><stop offset="0" stop-color="#a721ff"/><stop offset="1" stop-color="#a721ff" stop-opacity="0"/></radialGradient><linearGradient x1="238.50714" y1="179.29323" x2="238.50714" y2="165.82111" gradientUnits="userSpaceOnUse" id="color-3"><stop offset="0" stop-color="#a721ff"/><stop offset="1" stop-color="#a721ff" stop-opacity="0"/></linearGradient><linearGradient x1="238.73443" y1="179.27401" x2="238.73443" y2="192.74612" gradientUnits="userSpaceOnUse" id="color-4"><stop offset="0" stop-color="#a721ff"/><stop offset="1" stop-color="#a721ff" stop-opacity="0"/></linearGradient><radialGradient cx="263.16842" cy="179.25578" r="13.52851" gradientUnits="userSpaceOnUse" id="color-5"><stop offset="0" stop-color="#a721ff"/><stop offset="1" stop-color="#a721ff" stop-opacity="0"/></radialGradient><radialGradient cx="263.15443" cy="179.36727" r="13.5285" gradientUnits="userSpaceOnUse" id="color-6"><stop offset="0" stop-color="#a721ff"/><stop offset="1" stop-color="#a721ff" stop-opacity="0"/></radialGradient><linearGradient x1="414.22424" y1="127.61453" x2="414.22424" y2="83.66384" gradientUnits="userSpaceOnUse" id="color-7"><stop offset="0" stop-color="#1eff00"/><stop offset="1" stop-color="#1eff00" stop-opacity="0"/></linearGradient><radialGradient cx="395.25183" cy="127.49237" r="44.13465" gradientUnits="userSpaceOnUse" id="color-8"><stop offset="0" stop-color="#1eff00"/><stop offset="1" stop-color="#1eff00" stop-opacity="0"/></radialGradient><radialGradient cx="395.29748" cy="127.8561" r="44.13465" gradientUnits="userSpaceOnUse" id="color-9"><stop offset="0" stop-color="#1eff00"/><stop offset="1" stop-color="#1eff00" stop-opacity="0"/></radialGradient><linearGradient x1="414.24553" y1="127.55182" x2="414.24553" y2="171.50249" gradientUnits="userSpaceOnUse" id="color-10"><stop offset="0" stop-color="#1eff00"/><stop offset="1" stop-color="#1eff00" stop-opacity="0"/></linearGradient><radialGradient cx="433.27807" cy="127.49237" r="44.13465" gradientUnits="userSpaceOnUse" id="color-11"><stop offset="0" stop-color="#1eff00"/><stop offset="1" stop-color="#1eff00" stop-opacity="0"/></radialGradient><radialGradient cx="433.23242" cy="127.8561" r="44.13465" gradientUnits="userSpaceOnUse" id="color-12"><stop offset="0" stop-color="#1eff00"/><stop offset="1" stop-color="#1eff00" stop-opacity="0"/></radialGradient><linearGradient x1="211.42949" y1="179.35349" x2="254.9718" y2="179.35349" gradientUnits="userSpaceOnUse" id="color-13"><stop offset="0" stop-color="#ed0000"/><stop offset="1" stop-color="#7ce100"/></linearGradient></defs><g transform="translate(-200.85383,-165.82111)"><g data-paper-data="{&quot;isPaintingLayer&quot;:true}" fill-rule="nonzero" stroke-linejoin="miter" stroke-miterlimit="10" stroke-dasharray="" stroke-dashoffset="0" style="mix-blend-mode: normal"><path d="M200.86429,179.25578c0,-0.54662 -0.01046,-0.02676 -0.01046,-0.02676c0,0 3.19516,-0.01097 5.10106,-0.01751c2.43001,-0.00834 8.29244,-0.02846 8.29244,-0.02846c0,0 0.07937,6.36517 0.11031,8.84571c0.02246,1.80094 0.05814,4.66271 0.05814,4.66271c0,0 0.33913,0.02218 0.01237,0.04577c-0.08033,0.00581 0.20558,0.04704 -0.03535,0.04704c-7.47159,0 -13.52851,-6.05692 -13.52851,-13.5285z" fill="url(#color-1)" stroke="none" stroke-width="0" stroke-linecap="butt"/><path d="M214.43355,165.82832l0.06264,13.49722c0,0 -13.61791,-0.08236 -13.61791,-0.11729c0,-7.47159 6.05693,-13.36947 13.52851,-13.36947z" fill="url(#color-2)" stroke="none" stroke-width="0" stroke-linecap="butt"/><path d="M263.17427,165.82111l-0.11111,13.47212h-48.62432v-13.47212z" data-paper-data="{&quot;index&quot;:null}" fill="url(#color-3)" stroke="none" stroke-width="0" stroke-linecap="butt"/><path d="M214.4129,192.74612l-0.125,-13.47211h48.89302v13.47211z" fill="url(#color-4)" stroke="none" stroke-width="0" stroke-linecap="butt"/><path d="M263.14545,192.69147l-0.026,-13.41752l13.58794,-0.15605c0,0 -0.01045,-0.40875 -0.01045,0.13787c0,7.47159 -6.05692,13.52851 -13.52851,13.52851z" data-paper-data="{&quot;index&quot;:null}" fill="url(#color-5)" stroke="none" stroke-width="0" stroke-linecap="butt"/><path d="M276.68294,179.22539c0,0.03575 -0.04704,-0.02759 -0.04704,-0.02759l-13.55421,-0.01795c0,0 0.02013,-5.82046 0.02847,-8.25048c0.00576,-1.67905 0.0175,-5.10105 0.0175,-5.10105c0,0 -0.51986,0.01045 0.02677,0.01045c7.47159,0 13.5285,5.91504 13.5285,13.38662z" data-paper-data="{&quot;index&quot;:null}" fill="url(#color-6)" stroke="none" stroke-width="0" stroke-linecap="butt"/><path d="" data-paper-data="{&quot;index&quot;:null}" fill="url(#color-7)" stroke="none" stroke-width="0" stroke-linecap="butt"/><path d="" fill="url(#color-8)" stroke="none" stroke-width="0" stroke-linecap="butt"/><path d="" fill="#000000" stroke="#000000" stroke-width="5" stroke-linecap="butt"/><path d="" fill="url(#color-9)" stroke="none" stroke-width="0" stroke-linecap="butt"/><path d="" fill="#000000" stroke="#000000" stroke-width="5" stroke-linecap="butt"/><path d="" fill="#000000" stroke="none" stroke-width="0" stroke-linecap="butt"/><path d="" fill="url(#color-10)" stroke="none" stroke-width="0" stroke-linecap="butt"/><path d="" data-paper-data="{&quot;index&quot;:null}" fill="url(#color-11)" stroke="none" stroke-width="0" stroke-linecap="butt"/><path d="" data-paper-data="{&quot;index&quot;:null}" fill="#000000" stroke="#000000" stroke-width="5" stroke-linecap="butt"/><path d="" data-paper-data="{&quot;index&quot;:null}" fill="url(#color-12)" stroke="none" stroke-width="0" stroke-linecap="butt"/><path d="" data-paper-data="{&quot;index&quot;:null}" fill="#000000" stroke="#000000" stroke-width="5" stroke-linecap="butt"/><path d="" fill="#000000" stroke="#000000" stroke-width="4.75" stroke-linecap="butt"/><path d="M214.44316,179.35349h49.11368" fill="none" stroke="url(#color-13)" stroke-width="16.5" stroke-linecap="round"/></g></g></svg>