<svg version="1.1" xmlns="http://www.w3.org/2000/svg" xmlns:xlink="http://www.w3.org/1999/xlink" width="55.9725" height="45.07783" viewBox="0,0,55.9725,45.07783"><defs><radialGradient cx="239.83334" cy="188.66667" r="25.55555" gradientUnits="userSpaceOnUse" id="color-1"><stop offset="0" stop-color="#201a1a"/><stop offset="1" stop-color="#201a1a" stop-opacity="0"/></radialGradient><radialGradient cx="239.24526" cy="183.03083" r="25.67778" gradientUnits="userSpaceOnUse" id="color-2"><stop offset="0" stop-color="#ffcaca"/><stop offset="1" stop-color="#fc1212"/></radialGradient><radialGradient cx="240.44453" cy="180.2027" r="27.98623" gradientUnits="userSpaceOnUse" id="color-3"><stop offset="0" stop-color="#ff5f5f"/><stop offset="1" stop-color="#ff5f5f" stop-opacity="0"/></radialGradient><radialGradient cx="240.6112" cy="183.3334" r="20.78889" gradientUnits="userSpaceOnUse" id="color-4"><stop offset="0" stop-color="#ffa7a7"/><stop offset="1" stop-color="#fc7d7d"/></radialGradient><radialGradient cx="239.27788" cy="179.88896" r="15.11112" gradientUnits="userSpaceOnUse" id="color-5"><stop offset="0" stop-color="#ffcfcf"/><stop offset="1" stop-color="#ffcfcf" stop-opacity="0"/></radialGradient></defs><g transform="translate(-212.45828,-163.11111)"><g data-paper-data="{&quot;isPaintingLayer&quot;:true}" fill-rule="nonzero" stroke="none" stroke-width="0" stroke-linecap="butt" stroke-linejoin="miter" stroke-miterlimit="10" stroke-dasharray="" stroke-dashoffset="0" style="mix-blend-mode: normal"><path d="M217.57341,176.10436c4.38719,-7.75724 12.71209,-12.99325 22.25993,-12.99325c9.29085,0 17.42371,4.95794 21.89717,12.37241c2.32228,3.84902 -46.25521,4.33062 -44.1571,0.62084z" fill="url(#color-1)"/><path d="M231.00741,183.09481c-6.32453,-0.09535 -10.64649,-0.84625 -10.64649,-0.84625l-6.59122,-5.37751l6.32002,-0.88323l2.33933,-4.62504c0,0 5.75052,3.1746 6.78266,2.9387c0.21364,-0.04883 -1.51982,0.79069 0.74658,-0.49948c2.38114,-1.35547 3.53992,-2.39812 3.53992,-2.39812c0,0 4.41449,0.41701 7.18005,1.19678c1.43668,0.40509 13.07689,-2.97716 13.07689,-2.97716c0,0 -0.48339,4.53973 -0.0523,4.58075c2.19037,0.20845 10.13072,-3.09564 10.13072,-3.09564l-0.54979,7.6843l-3.64454,3.45562c0,0 -5.2208,0.66172 -8.17956,0.66172c0,0 -13.18722,0.29409 -20.45227,0.18456z" data-paper-data="{&quot;index&quot;:null}" fill="url(#color-2)"/><path d="M212.45828,180.2027c0,-4.42828 5.09163,-3.9291 5.69159,-3.32008c0.93794,0.95212 2.72068,-1.94707 3.83912,-1.24898c2.84293,1.77451 6.73353,0.77323 13.43732,0.77323c8.55546,0 17.23713,-0.99921 23.74358,-1.56813c5.24815,-0.45889 9.26089,-1.53695 9.26089,5.36396c0,15.45637 -12.52986,27.98624 -27.98623,27.98624c-15.45637,0 -27.98623,-12.52987 -27.98623,-27.98624z" fill="url(#color-3)"/><path d="M224.10009,182.70006l-6.44445,-7.17777c0,0 5.14287,0.46057 6.86994,0.20866c1.57825,-0.2302 2.86409,-1.66083 2.86409,-1.66083c0,0 3.34001,1.79103 7.10662,1.75576c2.32919,-0.02181 6.27573,-0.46414 7.55464,-0.40015c3.90144,0.1952 8.67357,-2.69922 8.67357,-2.69922c0,0 1.19071,2.38709 2.68447,2.8792c1.88333,0.62045 7.72005,-0.11815 7.72005,-0.11815l0.10439,2.70139l-5.33333,4.51111c0,0 -3.49909,0.40553 -8.61947,0.48273c-5.88183,0.08867 -13.6545,-0.14939 -16.55831,-0.14939c-2.39543,0 -6.62222,-0.33334 -6.62222,-0.33334z" fill="url(#color-4)"/><path d="M254.38898,179.88897c0,8.34563 -6.76548,15.11111 -15.11111,15.11111c-8.34564,0 -15.11112,-6.76548 -15.11112,-15.11111c0,-4.17507 4.16556,-3.59017 7.0417,-3.18452c2.87304,0.40522 1.45439,0.62895 5.62496,0.62895c1.54553,0 7.15187,-2.51339 8.69499,-1.91535c2.67142,1.03531 3.48667,2.73787 5.13549,2.49433c2.54168,-0.37542 3.72508,-2.14793 3.72508,1.97657z" data-paper-data="{&quot;index&quot;:null}" fill="url(#color-5)"/></g></g></svg>