<svg version="1.1" xmlns="http://www.w3.org/2000/svg" xmlns:xlink="http://www.w3.org/1999/xlink" width="236.52634" height="39.84428" viewBox="0,0,236.52634,39.84428"><defs><linearGradient x1="319.2576" y1="-108.58718" x2="319.2576" y2="884.6199" gradientUnits="userSpaceOnUse" id="color-1"><stop offset="0" stop-color="#1c1c1c"/><stop offset="1" stop-color="#1c1c1c" stop-opacity="0"/></linearGradient></defs><g transform="translate(-125.6125,-308.89605)"><g data-paper-data="{&quot;isPaintingLayer&quot;:true}" fill-rule="nonzero" stroke-linecap="butt" stroke-linejoin="miter" stroke-miterlimit="10" stroke-dasharray="" stroke-dashoffset="0" style="mix-blend-mode: normal"><path d="M134.62048,348.6978c-4.5894,-0.00235 -9.00797,-4.08615 -9.00797,-9.38148c0,-7.56402 0,-17.02434 0,-21.18344c0,-3.65206 5.23323,-8.90726 10.45597,-8.92657c12.2312,-0.04524 195.39045,-0.23166 216.61672,-0.31018c5.85607,-0.02166 9.47487,3.99864 9.45356,9.2386c-0.03013,7.41163 -0.07009,17.2365 -0.08731,21.47327c-0.01603,3.94273 -3.70256,9.13597 -10.81283,9.13232c0,0 -205.28981,-0.03672 -216.61814,-0.04252z" fill="url(#color-1)" stroke="#1b1b1b" stroke-width="0"/><text transform="translate(285.11729,324.2007) scale(0.30029,0.30029)" font-size="40" xml:space="preserve" fill="#dcdcdc" fill-rule="nonzero" stroke="#dcdcdc" stroke-width="1" stroke-linecap="butt" stroke-linejoin="miter" stroke-miterlimit="10" stroke-dasharray="" stroke-dashoffset="0" font-family="Sans Serif" font-weight="normal" text-anchor="start" style="mix-blend-mode: normal"><tspan x="0" dy="0">     LOAD </tspan><tspan x="0" dy="46.150000000000006px">PROGRESS</tspan></text><text transform="translate(141.11728,325.8007) scale(0.3003,0.3003)" font-size="40" xml:space="preserve" fill="#dcdcdc" fill-rule="nonzero" stroke="#dcdcdc" stroke-width="1" stroke-linecap="butt" stroke-linejoin="miter" stroke-miterlimit="10" stroke-dasharray="" stroke-dashoffset="0" font-family="Sans Serif" font-weight="normal" text-anchor="start" style="mix-blend-mode: normal"><tspan x="0" dy="0">     SAVE </tspan><tspan x="0" dy="46.150000000000006px">PROGRESS</tspan></text><text transform="translate(215.93517,324.61372) scale(0.30029,0.30029)" font-size="40" xml:space="preserve" fill="#dcdcdc" fill-rule="nonzero" stroke="#dcdcdc" stroke-width="1" stroke-linecap="butt" stroke-linejoin="miter" stroke-miterlimit="10" stroke-dasharray="" stroke-dashoffset="0" font-family="Sans Serif" font-weight="normal" text-anchor="start" style="mix-blend-mode: normal"><tspan x="0" dy="0">CHANGE</tspan><tspan x="0" dy="48px">KEYBING</tspan></text></g></g></svg>