<svg version="1.1" xmlns="http://www.w3.org/2000/svg" xmlns:xlink="http://www.w3.org/1999/xlink" width="50.91112" height="42.72224" viewBox="0,0,50.91112,42.72224"><defs><radialGradient cx="239.83334" cy="188.66667" r="25.55555" gradientUnits="userSpaceOnUse" id="color-1"><stop offset="0" stop-color="#201a1a"/><stop offset="1" stop-color="#201a1a" stop-opacity="0"/></radialGradient><radialGradient cx="239.35629" cy="183.03078" r="25.67778" gradientUnits="userSpaceOnUse" id="color-2"><stop offset="0" stop-color="#ffcaca"/><stop offset="1" stop-color="#fc1212"/></radialGradient><radialGradient cx="240.55556" cy="181.66668" r="24.16666" gradientUnits="userSpaceOnUse" id="color-3"><stop offset="0" stop-color="#ff5e5e"/><stop offset="1" stop-color="#ff5e5e" stop-opacity="0"/></radialGradient><radialGradient cx="240.61111" cy="183.33335" r="20.78889" gradientUnits="userSpaceOnUse" id="color-4"><stop offset="0" stop-color="#ffa7a7"/><stop offset="1" stop-color="#fc7d7d"/></radialGradient><radialGradient cx="239.27778" cy="179.77779" r="15.11112" gradientUnits="userSpaceOnUse" id="color-5"><stop offset="0" stop-color="#ffcfcf"/><stop offset="1" stop-color="#ffcfcf" stop-opacity="0"/></radialGradient></defs><g transform="translate(-214.43334,-163.11111)"><g data-paper-data="{&quot;isPaintingLayer&quot;:true}" fill-rule="nonzero" stroke="none" stroke-width="0" stroke-linecap="butt" stroke-linejoin="miter" stroke-miterlimit="10" stroke-dasharray="" stroke-dashoffset="0" style="mix-blend-mode: normal"><path d="M217.57341,176.10436c4.38719,-7.75724 12.71209,-12.99325 22.25993,-12.99325c9.29085,0 17.42371,4.95794 21.89717,12.37241c2.32228,3.84902 -46.25521,4.33062 -44.1571,0.62084z" fill="url(#color-1)"/><path d="M231.11843,183.09476c-6.32453,-0.09535 -10.64649,-0.84625 -10.64649,-0.84625l-6.0386,-7.76783c0,0 5.63505,1.72332 6.66719,1.48742c0.4381,-0.10013 4.23112,-0.1688 6.66275,-0.72101c1.52614,-0.34658 0.84596,-3.3988 0.84596,-3.3988c0,0 4.35158,2.69822 7.76022,3.0226c2.19037,0.20845 18.35295,-4.7623 18.35295,-4.7623c0,0 -3.01578,5.84126 -2.32757,5.79541c3.24766,-0.21637 12.94962,-3.12247 12.94962,-3.12247l-5.59416,9.46698c0,0 -5.2208,0.66172 -8.17956,0.66172c0,0 -13.18726,0.29406 -20.45231,0.18453z" data-paper-data="{&quot;index&quot;:null}" fill="url(#color-2)"/><path d="M216.38889,181.66668c0,-3.82391 4.93642,-6.09136 5.4545,-5.56545c0.80993,0.82217 1.80966,1.01716 2.77545,1.61998c2.45493,1.53232 5.81454,0.6677 11.60339,0.6677c7.38781,0 14.8846,-0.86284 20.50304,-1.35411c4.53188,-0.39626 7.99696,-1.32719 7.99696,4.63188c0,13.34688 -10.81978,24.16667 -24.16666,24.16667c-13.34688,0 -24.16666,-10.81979 -24.16666,-24.16667z" fill="url(#color-3)"/><path d="M224.1,182.70001l-4.88889,-7.84444c0,0 8.2146,2.5327 10.84392,2.70789c2.33677,0.15569 11.71171,-4.06622 16.11154,-4.12604c4.43897,-0.06036 7.89941,3.87508 9.22452,4.17793c0.83563,0.19099 5.3978,-1.20422 5.3978,-1.20422l-4.88889,6.28889c0,0 -3.49909,0.40553 -8.61947,0.48273c-5.88183,0.08867 -13.6545,-0.14939 -16.55831,-0.14939c-2.39543,0 -6.62222,-0.33334 -6.62222,-0.33334z" fill="url(#color-4)"/><path d="M224.16667,179.77779c0,-4.1245 1.1834,-2.35199 3.72508,-1.97657c1.64882,0.24354 3.57518,0.42987 6.2466,-0.60544c1.54312,-0.59804 3.70502,-2.64021 5.25055,-2.64021c4.17057,0 4.97415,2.44293 7.84719,2.03771c2.87614,-0.40565 7.15281,-0.99056 7.15281,3.18451c0,8.34563 -6.76548,15.11111 -15.11112,15.11111c-8.34563,0 -15.11111,-6.76548 -15.11111,-15.11111z" fill="url(#color-5)"/></g></g></svg>