<svg version="1.1" xmlns="http://www.w3.org/2000/svg" xmlns:xlink="http://www.w3.org/1999/xlink" width="112.16607" height="80.65652" viewBox="0,0,112.16607,80.65652"><defs><linearGradient x1="395.01045" y1="-257.28826" x2="395.01045" y2="735.91882" gradientUnits="userSpaceOnUse" id="color-1"><stop offset="0" stop-color="#101010"/><stop offset="1" stop-color="#101010" stop-opacity="0"/></linearGradient></defs><g transform="translate(-183.91698,-139.67174)"><g data-paper-data="{&quot;isPaintingLayer&quot;:true}" fill-rule="nonzero" stroke-width="0" stroke-linecap="butt" stroke-linejoin="miter" stroke-miterlimit="10" stroke-dasharray="" stroke-dashoffset="0" style="mix-blend-mode: normal"><path d="M235.30863,155.97363c0,0 3.37775,-0.76765 4.4674,-0.07165c3.33476,2.13005 2.81306,6.64571 2.81306,6.64571l-0.08102,6.76237l31.62971,-0.12362c0,0 2.45083,0.31771 3.30066,1.43631c0.84983,1.11859 1.07772,4.32681 1.07772,4.32681l0.43597,11.02634c0,0 -0.24258,2.87247 -2.38243,4.28329c-1.12829,0.74389 -4.22513,0.64772 -4.22513,0.64772l-29.91482,0.37939l-0.09112,7.98521c0,0 0.93895,3.69042 -3.26635,4.64621c-2.0811,0.47299 -4.19821,-0.87606 -4.19821,-0.87606l-31.32384,-18.54078c0,0 -2.46955,-0.60427 -2.4749,-3.5821c-0.00456,-2.5366 2.73872,-3.99796 2.73872,-3.99796z" fill="url(#color-1)" stroke="#1b1b1b"/><text transform="translate(217.04285,185.39115) scale(0.44926,0.44926)" font-size="40" xml:space="preserve" data-paper-data="{&quot;index&quot;:null}" fill="#ffffff" fill-rule="nonzero" stroke="#505050" stroke-width="0" stroke-linecap="butt" stroke-linejoin="miter" stroke-miterlimit="10" stroke-dasharray="" stroke-dashoffset="0" font-family="Sans Serif" font-weight="normal" text-anchor="start" style="mix-blend-mode: normal"><tspan x="0" dy="0">BACK</tspan></text><path d="M183.91699,220.32826v-80.65652h112.16607v80.65652z" fill="none" stroke="none"/></g></g></svg>