<svg version="1.1" xmlns="http://www.w3.org/2000/svg" xmlns:xlink="http://www.w3.org/1999/xlink" width="45.25161" height="32.9138" viewBox="0,0,45.25161,32.9138"><g transform="translate(-218.5,-162.67029)"><g data-paper-data="{&quot;isPaintingLayer&quot;:true}" fill-rule="nonzero" stroke-linecap="butt" stroke-linejoin="miter" stroke-miterlimit="10" stroke-dasharray="" stroke-dashoffset="0" style="mix-blend-mode: normal"><path d="M224.51398,164.91592c4.51558,0 24.05988,0 32.66026,0c6.34296,0 6.07576,2.31921 6.07576,7.23903c0,3.4264 0,8.78002 0,8.78002h-44.25c0,0 0,-6.75968 0,-9.78002c0,-4.66612 1.6291,-6.23903 5.51398,-6.23903z" data-paper-data="{&quot;index&quot;:null}" fill="#22e300" stroke="#ffffff" stroke-width="1"/><path d="M219,189.84505c0,-3.02034 0,-9.57748 0,-9.57748h44.25c0,0 0,3.98442 0,7.41082c0,4.91982 0.10053,7.4057 -6.24243,7.4057c-8.60038,0 -26.31134,0 -30.82692,0c-3.88488,0 -7.18065,-0.57291 -7.18065,-5.23903z" data-paper-data="{&quot;index&quot;:null}" fill="#22e300" stroke="#ffffff" stroke-width="1"/><path d="M219.51108,183.9v-4.85714h43.21429v4.85714z" fill="#22e300" stroke="none" stroke-width="0"/><text transform="translate(236.5618,178.54286) scale(0.36999,0.36999)" font-size="40" xml:space="preserve" fill="#ffffff" fill-rule="nonzero" stroke="none" stroke-width="1" stroke-linecap="butt" stroke-linejoin="miter" stroke-miterlimit="10" stroke-dasharray="" stroke-dashoffset="0" font-family="Sans Serif" font-weight="normal" text-anchor="start" style="mix-blend-mode: normal"><tspan x="0" dy="0">D</tspan></text><text transform="translate(219.85714,187.94262) scale(0.18653,0.18653)" font-size="40" xml:space="preserve" fill="#ffffff" fill-rule="nonzero" stroke="#ffffff" stroke-width="1" stroke-linecap="butt" stroke-linejoin="miter" stroke-miterlimit="10" stroke-dasharray="" stroke-dashoffset="0" font-family="Sans Serif" font-weight="normal" text-anchor="start" style="mix-blend-mode: normal"><tspan x="0" dy="0">Click to edit</tspan></text></g></g></svg>