<svg version="1.1" xmlns="http://www.w3.org/2000/svg" xmlns:xlink="http://www.w3.org/1999/xlink" width="93" height="93" viewBox="0,0,93,93"><defs><radialGradient cx="240" cy="180" r="46.5" gradientUnits="userSpaceOnUse" id="color-1"><stop offset="0" stop-color="#29ff00"/><stop offset="1" stop-color="#29ff00" stop-opacity="0"/></radialGradient><radialGradient cx="241.11634" cy="173.02436" r="13.39987" gradientTransform="translate(-392.90983,-309.49081) scale(1.72203,1.72203)" gradientUnits="userSpaceOnUse" id="color-2"><stop offset="0" stop-color="#29ff00"/><stop offset="1" stop-color="#1fb900"/></radialGradient></defs><g transform="translate(-193.5,-133.5)"><g data-paper-data="{&quot;isPaintingLayer&quot;:true}" fill-rule="nonzero" stroke-linecap="butt" stroke-linejoin="miter" stroke-miterlimit="10" stroke-dasharray="" stroke-dashoffset="0" style="mix-blend-mode: normal"><path d="M193.5,180c0,-25.68124 20.81876,-46.5 46.5,-46.5c25.68124,0 46.5,20.81876 46.5,46.5c0,25.68124 -20.81876,46.5 -46.5,46.5c-25.68124,0 -46.5,-20.81876 -46.5,-46.5z" fill="url(#color-1)" stroke="none" stroke-width="0"/><path d="M210.16667,180c0,-16.4765 13.35684,-29.83333 29.83333,-29.83333c16.4765,0 29.83333,13.35684 29.83333,29.83333c0,16.4765 -13.35684,29.83333 -29.83333,29.83333c-16.4765,0 -29.83333,-13.35684 -29.83333,-29.83333z" fill="#000000" stroke="#29ff00" stroke-width="8"/><text transform="translate(221.09015,194.05521) scale(0.32185,0.32185)" font-size="40" xml:space="preserve" fill="#22cf00" fill-rule="nonzero" stroke="#22cf00" stroke-width="1" stroke-linecap="butt" stroke-linejoin="miter" stroke-miterlimit="10" stroke-dasharray="" stroke-dashoffset="0" font-family="Sans Serif" font-weight="normal" text-anchor="start" style="mix-blend-mode: normal"><tspan x="0" dy="0">30000</tspan></text><text transform="translate(228.16667,179.72441) scale(0.58071,0.58071)" font-size="40" xml:space="preserve" fill="url(#color-2)" fill-rule="nonzero" stroke="#1fbd00" stroke-width="1" stroke-linecap="butt" stroke-linejoin="miter" stroke-miterlimit="10" stroke-dasharray="" stroke-dashoffset="0" font-family="Sans Serif" font-weight="normal" text-anchor="start" style="mix-blend-mode: normal"><tspan x="0" dy="0">x7</tspan></text></g></g></svg>